<svg width="166" height="216" viewBox="0 0 166 216" fill="none" xmlns="http://www.w3.org/2000/svg">
  <rect x="45.46094" y="158.02777" width="75.875" height="60.5555" rx="50.1111" fill="#D1D5DB" />
  <path
    d="M6.52629 91.2555C7.41956 90.6165 8.26922 89.9185 9.06962 89.1664C10.4473 101.398 11.0338 113.707 10.8257 126.014C9.73573 114.721 8.46406 97.735 6.52629 91.2555ZM11.2799 189.598C16.2028 190.481 20.8979 192.345 25.0866 195.078H10.8257C10.8257 193.776 11.0982 191.899 11.2799 189.598ZM11.7038 183.845C12.8543 185.177 14.0049 186.388 15.0949 187.478C13.9138 187.16 12.7088 186.937 11.4918 186.812C11.4918 185.874 11.4918 184.874 11.7038 183.784M2.62045 189.84C2.98158 190.449 3.47275 190.972 4.05893 191.369C4.6451 191.767 5.31184 192.031 6.01156 192.141C5.39437 191.696 4.88693 191.116 4.52795 190.446C4.1949 189.84 4.52795 189.567 4.80045 189.416H5.5574C6.11207 189.386 6.668 189.386 7.22267 189.416C6.85934 194.018 6.58684 196.804 6.55656 196.955L6.34462 199.105H31.6568C33.8368 200.71 35.2902 202.405 33.4129 203.253C32.0633 203.761 30.5993 203.886 29.1832 203.614C27.767 203.341 26.4539 202.682 25.3893 201.709C29.2346 206.705 37.0463 207.219 38.3482 204.918C39.6502 202.617 35.7141 198.984 35.7141 198.984L35.3507 198.742C33.8974 197.621 32.3229 196.531 30.8091 195.441L30.2943 195.078C28.0235 193.564 25.6921 192.05 23.3607 190.9C19.068 187.696 15.2372 183.916 11.9763 179.667C11.6331 179.243 11.3304 178.819 11.068 178.395L10.7652 177.941C8.5043 174.748 7.06885 171.045 6.58684 167.162C6.30557 163.879 7.10285 160.594 8.85768 157.806C8.85768 162.287 8.70629 166.587 8.5549 170.553C9.46428 173.01 10.6854 175.34 12.1882 177.487C12.6121 169.826 15.7913 104.033 12.5213 85.5936C13.8089 83.9265 14.7104 81.9944 15.1607 79.9367C15.611 77.8789 15.5989 75.7469 15.1252 73.6944C13.3233 69.4133 11.9244 64.9736 10.9468 60.4328C9.5776 56.2111 8.65414 51.8576 8.19156 47.4436L5.73906 74.845V75.2386C6.63101 77.8939 7.34911 80.6044 7.88879 83.353C9.2071 82.2736 10.2457 80.8923 10.9166 79.3261C10.4927 77.6003 10.0385 75.935 9.49351 74.3605L10.0082 68.6986C11.068 71.8778 12.1277 74.3605 12.2185 74.5725C12.7571 76.8299 12.5004 79.204 11.4918 81.2942C10.8177 82.9976 9.78508 84.5362 8.46406 85.8055C7.16438 87.1781 5.71166 88.3972 4.13434 89.4389L3.19573 90.0141L3.52879 91.0739C6.04184 99.2791 8.79712 150.509 8.79712 150.509V152.841C6.97508 154.747 5.57503 157.015 4.68817 159.498C3.80131 161.982 3.44754 164.624 3.6499 167.253C4.17382 171.44 5.67798 175.444 8.04017 178.94C7.88879 181.695 7.7374 184.208 7.58601 186.419H7.04101C4.01323 186.176 1.4699 187.842 2.74156 189.901M11.4918 55.5278C9.94615 50.7175 8.93086 45.7528 8.46406 40.7219V39.9044L9.70545 39.5108C12.7332 38.6025 20.9991 34.9389 20.9991 30.2458V28.2778H144.926V30.2458C144.926 34.9389 153.252 38.6025 156.189 39.5108L157.431 39.9044V40.7219C157.037 45.743 156.103 50.707 154.645 55.5278L153.797 42.8111C150.588 41.6303 142.716 38.1786 141.262 32.1836H24.8141C23.3607 38.2392 15.5188 41.6303 12.2791 42.8111L11.4918 55.5278ZM156.977 89.1664C157.777 89.9185 158.627 90.6165 159.52 91.2555C157.733 97.735 156.31 114.721 155.251 126.014C155.032 113.707 155.608 101.399 156.977 89.1664ZM140.99 195.139C145.168 192.406 149.853 190.542 154.766 189.658C154.948 191.959 155.13 193.837 155.251 195.139H140.99ZM154.342 183.906C154.342 184.935 154.342 185.934 154.554 186.933C153.337 187.058 152.132 187.281 150.951 187.599C152.072 186.509 153.222 185.298 154.342 183.966M150.951 73.6944C150.505 75.7233 150.513 77.8255 150.974 79.851C151.434 81.8765 152.336 83.7754 153.616 85.4119C150.346 103.851 153.616 169.645 153.949 177.305C155.452 175.159 156.673 172.829 157.582 170.371C157.582 166.405 157.34 162.106 157.279 157.624C159.034 160.413 159.831 163.698 159.55 166.98C159.065 170.857 157.641 174.557 155.402 177.759L155.099 178.213L154.191 179.485C150.923 183.756 147.082 187.556 142.776 190.779C140.32 192.084 137.935 193.519 135.631 195.078L135.146 195.441C133.572 196.531 132.118 197.621 130.574 198.742L130.211 198.984C130.211 198.984 126.305 202.496 127.607 204.797C128.909 207.098 136.69 206.584 140.566 201.588C139.493 202.557 138.175 203.214 136.755 203.486C135.335 203.759 133.867 203.636 132.512 203.132C130.665 202.284 132.118 200.589 134.268 198.984H159.55L159.308 196.834C159.308 196.683 159.005 193.806 158.642 189.295C159.207 189.265 159.773 189.265 160.337 189.295H161.094C161.427 189.446 161.7 189.719 161.367 190.324C161.008 190.995 160.5 191.575 159.883 192.02C160.583 191.91 161.25 191.646 161.836 191.248C162.422 190.85 162.913 190.328 163.274 189.719C164.546 187.66 161.942 185.995 159.005 186.237H158.43C158.43 184.027 158.127 181.514 157.976 178.758C160.363 175.275 161.87 171.265 162.366 167.071C162.568 164.442 162.215 161.8 161.328 159.317C160.441 156.833 159.041 154.565 157.219 152.659V150.327C157.219 150.327 159.974 99.0975 162.517 90.8922L162.82 89.8325L161.882 89.2572C160.316 88.2692 158.864 87.1117 157.552 85.8055C156.236 84.5556 155.203 83.0378 154.524 81.3547C153.501 79.2704 153.213 76.9017 153.707 74.633C153.707 74.4211 154.857 71.9383 155.917 68.7592L156.432 74.4211C155.917 75.9955 155.463 77.6608 155.039 79.3866C155.697 80.9603 156.737 82.3446 158.067 83.4136C158.606 80.665 159.324 77.9544 160.216 75.2991V74.9055L157.764 47.6555C157.301 52.0696 156.378 56.423 155.008 60.6447C154.052 65.108 152.694 69.4757 150.951 73.6944ZM50.2171 198.984C49.6698 198.386 49.1544 197.759 48.6729 197.107V196.925C48.2285 196.341 47.8141 195.735 47.4316 195.108C45.5255 192.085 44.4788 188.599 44.4038 185.026C44.4038 170.341 61.7227 158.412 83.0382 158.412C104.354 158.412 121.642 170.341 121.642 185.026C121.583 188.602 120.535 192.091 118.615 195.108C118.251 195.714 117.827 196.319 117.403 196.925L117.252 197.107C116.771 197.759 116.255 198.386 115.708 198.984C108.895 206.553 96.754 211.61 82.9171 211.61C69.0802 211.61 56.9388 206.553 50.096 198.984M114.678 205.645C117.118 203.734 119.278 201.492 121.097 198.984H127.88L132.815 195.078H128.334C129.285 192.413 129.876 189.633 130.09 186.812C131.137 188.521 132.746 189.812 134.641 190.464C136.536 191.116 138.599 191.088 140.475 190.385C139.264 190.718 134.42 191.445 130.029 182.24C129.719 178.209 127.929 174.434 125.003 171.643C126.654 174.761 127.673 178.174 128 181.686C128.328 185.199 127.957 188.742 126.911 192.111C126.597 192.509 126.197 192.831 125.741 193.051C125.284 193.272 124.783 193.385 124.277 193.382C125.359 190.707 125.924 187.851 125.942 184.965C125.942 167.949 106.685 154.112 83.0685 154.112C59.4518 154.112 40.1649 168.01 40.1649 185.026C40.1623 187.908 40.7068 190.764 41.7696 193.443C41.2635 193.441 40.7642 193.326 40.3084 193.106C39.8526 192.886 39.4518 192.566 39.1354 192.171C37.0384 185.365 37.7244 178.005 41.0429 171.704C38.117 174.495 36.3268 178.269 36.0168 182.301C31.6266 191.384 26.7518 190.779 25.571 190.446C27.4432 191.147 29.5012 191.173 31.391 190.521C33.2808 189.869 34.8844 188.579 35.926 186.873C36.1694 189.69 36.7592 192.466 37.6821 195.139H33.1102L38.0454 199.044H44.7974C46.5859 201.559 48.7274 203.802 51.1557 205.706C51.0043 205.706 38.5904 212.972 29.0529 206.796C29.0529 206.796 31.8385 212.548 40.9824 212.185H41.5274C52.0338 211.156 56.9085 215.606 56.9085 215.606C56.3175 214.194 55.3661 212.961 54.1493 212.031C52.9326 211.101 51.4932 210.507 49.9749 210.308C51.0346 209.914 52.1246 209.49 53.2752 208.976C56.3424 209.581 59.0736 211.308 60.9354 213.82L76.6496 215.606C80.9229 216.131 85.2444 216.131 89.5177 215.606L105.232 213.82C107.085 211.327 109.79 209.603 112.832 208.976C113.982 209.49 115.072 209.914 116.132 210.308C114.611 210.511 113.169 211.106 111.948 212.035C110.727 212.964 109.769 214.195 109.168 215.606C109.168 215.606 114.073 211.156 124.579 212.185H125.124C134.208 212.548 137.054 206.796 137.054 206.796C127.698 212.851 115.587 206.069 114.981 205.706"
    fill="#231F20" />
  <rect x="45.46094" y="1.02777" width="75.875" height="60.5555" rx="50.1111" fill="#D1D5DB" />
  <path fill-rule="evenodd" clip-rule="evenodd"
    d="M142.604 21.6517C146.907 24.4598 151.731 26.3746 156.789 27.2823C156.861 26.3735 156.947 25.529 157.025 24.7577C157.15 23.5226 157.256 22.4752 157.256 21.6517L142.604 21.6517ZM152.87 29.4598C153.99 30.5797 155.172 31.824 156.354 33.1928V33.255C156.571 32.1351 156.571 31.1086 156.571 30.1442C155.321 30.0162 154.083 29.7873 152.87 29.4598ZM164.208 25.462C164.811 25.8707 165.315 26.4073 165.686 27.0334L165.562 26.9712C166.868 29.0865 164.255 30.7975 161.144 30.5486H160.584C160.429 32.8195 160.273 35.4015 160.118 38.2323C162.545 41.8244 164.09 45.9384 164.628 50.24C164.836 52.9412 164.473 55.6558 163.562 58.2071C162.651 60.7584 161.212 63.0892 159.34 65.0475V65.483L154.757 65.483C155.199 52.6519 155.703 42.4938 155.856 39.7255C157.4 41.9305 158.655 44.3247 159.589 46.8492C159.433 50.9244 159.278 55.3418 159.278 59.9458C161.081 57.0809 161.9 53.706 161.611 50.3334C161.116 46.3442 159.641 42.5396 157.318 39.2589L157.007 38.7922C156.737 38.3567 156.426 37.9212 156.074 37.4857C152.723 33.1198 148.788 29.2362 144.377 25.9446C141.982 24.7625 139.586 23.2071 137.253 21.6517L136.725 21.2784C136.304 20.9759 135.88 20.6734 135.454 20.3703C134.304 19.5513 133.148 18.7277 132.058 17.8876L131.685 17.6388C131.685 17.6388 127.641 13.9058 128.979 11.5416C130.316 9.17736 138.342 9.7062 142.293 14.839C141.199 13.8394 139.85 13.162 138.395 12.882C136.94 12.602 135.436 12.7302 134.049 13.2525C132.121 14.1235 133.614 15.8656 135.854 17.5143L161.86 17.5143L161.642 19.723C161.611 19.8785 161.331 22.7405 160.958 27.4689C161.528 27.5003 162.099 27.5003 162.669 27.4689H163.446C163.726 27.3134 164.069 27.0334 163.726 26.4112C163.358 25.7221 162.836 25.1262 162.202 24.6692C162.921 24.7827 163.606 25.0534 164.208 25.462ZM11.2588 65.483H6.8482V65.2341C4.97619 63.2758 3.53776 60.9451 2.62657 58.3938C1.71539 55.8425 1.35191 53.1278 1.55982 50.4267C2.06983 46.1181 3.61767 41.9977 6.07049 38.419C6.01153 37.3458 5.9302 36.3083 5.85195 35.31C5.72379 33.6751 5.60388 32.1452 5.60388 30.7353H5.01283C1.99534 30.9841 -0.679967 29.2732 0.626582 27.1578C0.997614 26.5317 1.50225 25.9951 2.1045 25.5865C2.70675 25.1778 3.39178 24.9071 4.1107 24.7936C3.47657 25.2507 2.95523 25.8465 2.58639 26.5357C2.2442 27.1578 2.52418 27.4378 2.86637 27.5933H3.64407C4.22434 27.6244 4.80586 27.6244 5.38613 27.5933C5.13275 24.4473 4.90803 22.0751 4.7898 20.827C4.73385 20.2363 4.70175 19.8974 4.70175 19.8474L4.45288 17.6388L30.4281 17.6388C32.6368 15.99 34.13 14.248 32.2324 13.3769C30.84 12.8591 29.3322 12.7331 27.8731 13.0129C26.4141 13.2926 25.0598 13.9673 23.9577 14.9635C27.9395 9.83062 35.9343 9.30179 37.2719 11.666C38.6096 14.0302 34.5966 17.6388 34.5966 17.6388L34.2233 17.8876C33.7632 18.2214 33.3109 18.5526 32.8612 18.882C31.7602 19.6882 30.6745 20.4833 29.526 21.2784L29.0283 21.6517C26.6612 23.2533 24.2105 24.7278 21.6868 26.0691C17.2632 29.3799 13.3169 33.2844 9.95901 37.6724L9.02577 38.9789L8.71469 39.4455C6.41418 42.7353 4.95124 46.5367 4.45288 50.52C4.16389 53.8926 4.98303 57.2675 6.78597 60.1324C6.75813 58.0719 6.6929 56.0488 6.62933 54.077C6.55087 51.643 6.47491 49.2872 6.47491 47.0359C7.40923 44.5113 8.66381 42.1172 10.2079 39.9121C10.2285 40.3868 10.2601 41.0786 10.3006 41.9638C10.4949 46.217 10.8932 54.9354 11.2588 65.483ZM9.36796 27.22C14.4159 26.3116 19.2295 24.3968 23.5221 21.5895L8.87023 21.5895C8.88799 21.7804 8.90702 21.9834 8.92713 22.198C9.04795 23.4866 9.20796 25.1933 9.36796 27.22ZM9.58572 30.0198C9.80348 31.0463 9.80348 32.0729 9.80348 33.1306V33.0684C10.9545 31.6996 12.1366 30.4553 13.2876 29.3354C12.0741 29.6629 10.8361 29.8917 9.58572 30.0198ZM118.371 19.5675C117.876 18.8972 117.347 18.2534 116.784 17.6388H116.909C109.878 9.86173 97.4039 4.66668 83.1875 4.66668C68.9711 4.66668 56.4967 9.86173 49.4974 17.6388C48.9351 18.2534 48.4056 18.8972 47.9109 19.5675L47.7554 19.7541L47.7551 19.7544C47.3197 20.3765 46.8843 20.9985 46.511 21.6206C44.538 24.7204 43.4614 28.3057 43.4002 31.9796C43.4002 47.067 61.163 59.3236 83.0631 59.3236C104.963 59.3236 122.757 47.067 122.757 31.9796C122.68 28.3082 121.605 24.7271 119.646 21.6206C119.253 20.9771 118.827 20.3541 118.371 19.7541V19.5675ZM43.9602 17.6388C45.8294 15.0618 48.0491 12.7583 50.5551 10.795L50.244 10.7328C49.6218 10.3595 37.1786 3.39125 27.5662 9.61287C27.5662 9.61287 30.4904 3.70233 39.8228 4.07562H40.3827C51.1773 5.1333 56.2168 0.560421 56.2168 0.560421C55.599 2.01064 54.6145 3.27513 53.3601 4.22962C52.1056 5.1841 50.6243 5.79572 49.0619 6.00433C50.1507 6.40874 51.2706 6.84425 52.4527 7.37308C55.5779 6.72829 58.357 4.95678 60.2608 2.39579L76.4059 0.560421C80.7964 0.0211221 85.2364 0.0211221 89.6269 0.560421L105.772 2.39579C107.685 4.97624 110.491 6.75088 113.642 7.37308C114.824 6.84425 115.944 6.40874 117.033 6.00433C115.473 5.7996 113.994 5.18908 112.744 4.23377C111.494 3.27847 110.517 2.01183 109.909 0.560421C109.909 0.560421 114.918 5.1333 125.712 4.07562H126.272C135.667 3.70233 138.529 9.61287 138.529 9.61287C129.486 3.75677 117.927 9.66227 116.074 10.6091C115.919 10.6883 115.832 10.7328 115.82 10.7328C118.315 12.6885 120.515 14.9934 122.353 17.5765L129.29 17.5765L134.36 21.5895H129.663C130.611 24.3354 131.217 27.1878 131.467 30.082C132.537 28.3288 134.185 27.0033 136.127 26.3333C138.068 25.6634 140.183 25.691 142.106 26.4112C140.893 26.069 135.885 25.4469 131.374 34.7793C131.055 38.9216 129.216 42.7997 126.21 45.6671C129.62 39.1928 130.324 31.631 128.17 24.6381C127.845 24.2321 127.433 23.9041 126.965 23.678C126.496 23.4519 125.983 23.3335 125.463 23.3315C126.555 26.0839 127.115 29.0185 127.112 31.9796C127.112 49.4623 107.296 63.7409 83.0319 63.7409C58.7676 63.7409 38.9829 49.5245 38.9829 32.0418C39.0007 29.0768 39.5813 26.1422 40.6938 23.3938C40.173 23.3912 39.6585 23.5076 39.1895 23.734C38.7205 23.9604 38.3094 24.2909 37.9874 24.7003C36.9121 28.1617 36.5317 31.8015 36.868 35.4105C37.2043 39.0194 38.2508 42.5263 39.9472 45.7294C36.941 42.8619 35.1017 38.9838 34.7833 34.8415C30.2726 25.3847 25.2953 26.1313 24.051 26.4734C25.9791 25.7511 28.0984 25.7224 30.0454 26.3922C31.9923 27.062 33.6455 28.3886 34.7211 30.1442C34.9408 27.2455 35.5476 24.3893 36.5253 21.6517L31.9213 21.6517L36.992 17.6388L43.9602 17.6388Z"
    fill="#231F20" />
</svg>
  