<svg xmlns="http://www.w3.org/2000/svg" width="561" height="759" viewBox="0 0 561 759" fill="none">
  <g filter="url(#filter0_ddddd_281_2198)">
    <mask id="path-1-inside-1_281_2198" fill="white">
      <path
        d="M79.8938 367C82.598 363.834 85.1702 360.376 87.5933 356.65C91.7638 417.249 93.5396 478.226 92.9096 539.2C89.6098 483.25 85.7601 399.1 79.8938 367ZM94.2845 854.2C109.188 858.577 123.401 867.809 136.082 881.35H92.9096C92.9096 874.9 93.7345 865.6 94.2845 854.2ZM95.5677 825.7C99.0508 832.3 102.534 838.3 105.834 843.7C102.258 842.121 98.6104 841.017 94.9261 840.4C94.9261 835.75 94.9261 830.8 95.5677 825.4M68.0696 855.4C69.1629 858.419 70.6498 861.006 72.4243 862.977C74.1989 864.947 76.2173 866.253 78.3356 866.8C76.4671 864.596 74.931 861.723 73.8442 858.4C72.8359 855.4 73.8442 854.05 74.6692 853.3H76.9607C78.6398 853.148 80.3228 853.148 82.002 853.3C80.9021 876.1 80.0771 889.9 79.9855 890.65L79.3438 901.3H155.972C162.572 909.25 166.971 917.65 161.288 921.85C157.203 924.368 152.771 924.986 148.483 923.636C144.196 922.286 140.221 919.02 136.998 914.2C148.639 938.95 172.288 941.5 176.229 930.1C180.17 918.7 168.254 900.7 168.254 900.7L167.155 899.5C162.755 893.95 157.989 888.55 153.406 883.15L151.847 881.35C144.973 873.85 137.915 866.35 130.857 860.65C117.862 844.778 106.265 826.052 96.3927 805C95.3539 802.9 94.4373 800.8 93.6429 798.7L92.7263 796.45C85.8819 780.631 81.5363 762.285 80.0771 743.05C79.2256 726.787 81.6392 710.514 86.9517 696.7C86.9517 718.9 86.4934 740.2 86.0351 759.85C88.7881 772.023 92.4847 783.567 97.0343 794.2C98.3176 756.25 107.942 430.3 98.0426 338.95C101.941 330.691 104.67 321.119 106.033 310.925C107.396 300.731 107.359 290.168 105.925 280C100.47 258.791 96.2357 236.796 93.2762 214.3C89.1311 193.385 86.3355 171.818 84.9351 149.95L77.5106 285.7V287.65C80.2109 300.805 82.3847 314.233 84.0185 327.85C88.0095 322.502 91.1537 315.659 93.1846 307.9C91.9013 299.35 90.5264 291.1 88.8765 283.3L90.4348 255.25C93.6429 271 96.851 283.3 97.126 284.35C98.7565 295.533 97.9795 307.295 94.9261 317.65C92.8852 326.089 89.7592 333.711 85.7601 340C81.8255 346.8 77.4277 352.839 72.6526 358L69.8112 360.85L70.8194 366.1C78.4272 406.75 86.7683 660.55 86.7683 660.55V672.1C81.2524 681.543 77.014 692.781 74.3292 705.083C71.6444 717.385 70.5734 730.475 71.1861 743.5C72.7721 764.242 77.3257 784.079 84.4768 801.4C84.0185 815.05 83.5602 827.5 83.1019 838.45H81.452C72.286 837.25 64.5865 845.5 68.4362 855.7M94.9261 190C90.2468 166.17 87.1732 141.573 85.7601 116.65V112.6L89.5182 110.65C98.6842 106.15 123.708 88 123.708 64.75V55H498.874V64.75C498.874 88 524.08 106.15 532.972 110.65L536.73 112.6V116.65C535.538 141.525 532.711 166.117 528.297 190L525.73 127C516.014 121.15 492.183 104.05 487.783 74.35H135.257C130.857 104.35 107.117 121.15 97.3093 127L94.9261 190ZM535.355 356.65C537.778 360.376 540.35 363.834 543.054 367C537.646 399.1 533.338 483.25 530.13 539.2C529.467 478.229 531.212 417.252 535.355 356.65ZM486.958 881.65C499.606 868.113 513.79 858.88 528.663 854.5C529.213 865.9 529.763 875.2 530.13 881.65H486.958ZM527.38 826C527.38 831.1 527.38 836.05 528.022 841C524.338 841.617 520.69 842.721 517.114 844.3C520.506 838.9 523.989 832.9 527.38 826.3M517.114 280C515.765 290.051 515.788 300.466 517.182 310.5C518.577 320.535 521.308 329.942 525.18 338.05C515.281 429.4 525.18 755.35 526.189 793.3C530.738 782.667 534.435 771.123 537.188 758.95C537.188 739.3 536.455 718 536.271 695.8C541.584 709.614 543.997 725.887 543.146 742.15C541.677 761.357 537.367 779.687 530.588 795.55L529.672 797.8L526.922 804.1C517.028 825.258 505.4 844.085 492.366 860.05C484.93 866.517 477.709 873.627 470.734 881.35L469.268 883.15C464.501 888.55 460.101 893.95 455.427 899.5L454.327 900.7C454.327 900.7 442.503 918.1 446.444 929.5C450.385 940.9 473.942 938.35 485.675 913.6C482.427 918.403 478.437 921.656 474.138 923.005C469.839 924.354 465.396 923.747 461.293 921.25C455.702 917.05 460.101 908.65 466.609 900.7H543.146L542.413 890.05C542.413 889.3 541.496 875.05 540.396 852.7C542.106 852.55 543.819 852.55 545.529 852.7H547.821C548.829 853.45 549.654 854.8 548.645 857.8C547.559 861.123 546.023 863.996 544.154 866.2C546.272 865.653 548.291 864.347 550.065 862.377C551.84 860.406 553.327 857.819 554.42 854.8C558.27 844.6 550.387 836.35 541.496 837.55H539.754C539.754 826.6 538.838 814.15 538.38 800.5C545.607 783.244 550.168 763.375 551.67 742.6C552.283 729.575 551.212 716.485 548.527 704.183C545.842 691.881 541.604 680.643 536.088 671.2V659.65C536.088 659.65 544.429 405.85 552.129 365.2L553.045 359.95L550.204 357.1C545.464 352.205 541.068 346.471 537.096 340C533.112 333.808 529.987 326.288 527.93 317.95C524.834 307.624 523.962 295.889 525.455 284.65C525.455 283.6 528.938 271.3 532.147 255.55L533.705 283.6C532.147 291.4 530.772 299.65 529.488 308.2C531.48 315.996 534.631 322.854 538.654 328.15C540.288 314.533 542.462 301.105 545.162 287.95V286L537.738 151C536.338 172.868 533.542 194.435 529.397 215.35C526.502 237.462 522.391 259.1 517.114 280ZM212.16 900.7C210.503 897.736 208.943 894.632 207.485 891.4V890.5C206.14 887.607 204.885 884.603 203.727 881.5C197.957 866.521 194.788 849.253 194.561 831.55C194.561 758.8 246.991 699.7 311.52 699.7C376.049 699.7 428.387 758.8 428.387 831.55C428.207 849.265 425.034 866.553 419.221 881.5C418.121 884.5 416.838 887.5 415.554 890.5L415.096 891.4C413.639 894.632 412.078 897.736 410.421 900.7C389.798 938.2 353.042 963.25 311.153 963.25C269.264 963.25 232.508 938.2 211.793 900.7M407.305 933.7C414.689 924.233 421.229 913.125 426.737 900.7H447.269L462.21 881.35H448.644C451.525 868.149 453.313 854.377 453.96 840.4C457.129 848.865 462 855.262 467.737 858.491C473.474 861.721 479.719 861.583 485.4 858.1C481.733 859.75 467.068 863.35 453.777 817.75C452.839 797.776 447.419 779.077 438.561 765.25C443.56 780.695 446.643 797.604 447.634 815.006C448.625 832.408 447.504 849.959 444.336 866.65C443.387 868.624 442.176 870.217 440.794 871.309C439.412 872.401 437.896 872.962 436.361 872.95C439.639 859.697 441.35 845.547 441.403 831.25C441.403 746.95 383.107 678.4 311.611 678.4C240.116 678.4 181.729 747.25 181.729 831.55C181.721 845.828 183.369 859.978 186.587 873.25C185.054 873.24 183.543 872.669 182.163 871.579C180.783 870.489 179.57 868.907 178.612 866.95C172.264 833.231 174.34 796.768 184.387 765.55C175.529 779.377 170.109 798.076 169.171 818.05C155.88 863.05 141.123 860.05 137.548 858.4C143.216 861.873 149.446 862.006 155.167 858.775C160.888 855.545 165.743 849.153 168.896 840.7C169.633 854.655 171.419 868.409 174.212 881.65H160.372L175.312 901H195.753C201.167 913.455 207.65 924.57 215.001 934C214.543 934 176.962 970 148.089 939.4C148.089 939.4 156.522 967.9 184.203 966.1H185.853C217.659 961 232.417 983.05 232.417 983.05C230.628 976.051 227.747 969.944 224.064 965.337C220.381 960.731 216.023 957.787 211.427 956.8C214.635 954.85 217.934 952.75 221.418 950.2C230.703 953.2 238.971 961.757 244.608 974.2L292.179 983.05C305.116 985.65 318.199 985.65 331.135 983.05L378.707 974.2C384.317 961.851 392.505 953.309 401.714 950.2C405.197 952.75 408.497 954.85 411.705 956.8C407.101 957.806 402.736 960.755 399.04 965.357C395.344 969.96 392.443 976.057 390.623 983.05C390.623 983.05 405.472 961 437.278 966.1H438.928C466.426 967.9 475.042 939.4 475.042 939.4C446.719 969.4 410.055 935.8 408.222 934" />
    </mask>
    <path
      d="M79.8938 367C82.598 363.834 85.1702 360.376 87.5933 356.65C91.7638 417.249 93.5396 478.226 92.9096 539.2C89.6098 483.25 85.7601 399.1 79.8938 367ZM94.2845 854.2C109.188 858.577 123.401 867.809 136.082 881.35H92.9096C92.9096 874.9 93.7345 865.6 94.2845 854.2ZM95.5677 825.7C99.0508 832.3 102.534 838.3 105.834 843.7C102.258 842.121 98.6104 841.017 94.9261 840.4C94.9261 835.75 94.9261 830.8 95.5677 825.4M68.0696 855.4C69.1629 858.419 70.6498 861.006 72.4243 862.977C74.1989 864.947 76.2173 866.253 78.3356 866.8C76.4671 864.596 74.931 861.723 73.8442 858.4C72.8359 855.4 73.8442 854.05 74.6692 853.3H76.9607C78.6398 853.148 80.3228 853.148 82.002 853.3C80.9021 876.1 80.0771 889.9 79.9855 890.65L79.3438 901.3H155.972C162.572 909.25 166.971 917.65 161.288 921.85C157.203 924.368 152.771 924.986 148.483 923.636C144.196 922.286 140.221 919.02 136.998 914.2C148.639 938.95 172.288 941.5 176.229 930.1C180.17 918.7 168.254 900.7 168.254 900.7L167.155 899.5C162.755 893.95 157.989 888.55 153.406 883.15L151.847 881.35C144.973 873.85 137.915 866.35 130.857 860.65C117.862 844.778 106.265 826.052 96.3927 805C95.3539 802.9 94.4373 800.8 93.6429 798.7L92.7263 796.45C85.8819 780.631 81.5363 762.285 80.0771 743.05C79.2256 726.787 81.6392 710.514 86.9517 696.7C86.9517 718.9 86.4934 740.2 86.0351 759.85C88.7881 772.023 92.4847 783.567 97.0343 794.2C98.3176 756.25 107.942 430.3 98.0426 338.95C101.941 330.691 104.67 321.119 106.033 310.925C107.396 300.731 107.359 290.168 105.925 280C100.47 258.791 96.2357 236.796 93.2762 214.3C89.1311 193.385 86.3355 171.818 84.9351 149.95L77.5106 285.7V287.65C80.2109 300.805 82.3847 314.233 84.0185 327.85C88.0095 322.502 91.1537 315.659 93.1846 307.9C91.9013 299.35 90.5264 291.1 88.8765 283.3L90.4348 255.25C93.6429 271 96.851 283.3 97.126 284.35C98.7565 295.533 97.9795 307.295 94.9261 317.65C92.8852 326.089 89.7592 333.711 85.7601 340C81.8255 346.8 77.4277 352.839 72.6526 358L69.8112 360.85L70.8194 366.1C78.4272 406.75 86.7683 660.55 86.7683 660.55V672.1C81.2524 681.543 77.014 692.781 74.3292 705.083C71.6444 717.385 70.5734 730.475 71.1861 743.5C72.7721 764.242 77.3257 784.079 84.4768 801.4C84.0185 815.05 83.5602 827.5 83.1019 838.45H81.452C72.286 837.25 64.5865 845.5 68.4362 855.7M94.9261 190C90.2468 166.17 87.1732 141.573 85.7601 116.65V112.6L89.5182 110.65C98.6842 106.15 123.708 88 123.708 64.75V55H498.874V64.75C498.874 88 524.08 106.15 532.972 110.65L536.73 112.6V116.65C535.538 141.525 532.711 166.117 528.297 190L525.73 127C516.014 121.15 492.183 104.05 487.783 74.35H135.257C130.857 104.35 107.117 121.15 97.3093 127L94.9261 190ZM535.355 356.65C537.778 360.376 540.35 363.834 543.054 367C537.646 399.1 533.338 483.25 530.13 539.2C529.467 478.229 531.212 417.252 535.355 356.65ZM486.958 881.65C499.606 868.113 513.79 858.88 528.663 854.5C529.213 865.9 529.763 875.2 530.13 881.65H486.958ZM527.38 826C527.38 831.1 527.38 836.05 528.022 841C524.338 841.617 520.69 842.721 517.114 844.3C520.506 838.9 523.989 832.9 527.38 826.3M517.114 280C515.765 290.051 515.788 300.466 517.182 310.5C518.577 320.535 521.308 329.942 525.18 338.05C515.281 429.4 525.18 755.35 526.189 793.3C530.738 782.667 534.435 771.123 537.188 758.95C537.188 739.3 536.455 718 536.271 695.8C541.584 709.614 543.997 725.887 543.146 742.15C541.677 761.357 537.367 779.687 530.588 795.55L529.672 797.8L526.922 804.1C517.028 825.258 505.4 844.085 492.366 860.05C484.93 866.517 477.709 873.627 470.734 881.35L469.268 883.15C464.501 888.55 460.101 893.95 455.427 899.5L454.327 900.7C454.327 900.7 442.503 918.1 446.444 929.5C450.385 940.9 473.942 938.35 485.675 913.6C482.427 918.403 478.437 921.656 474.138 923.005C469.839 924.354 465.396 923.747 461.293 921.25C455.702 917.05 460.101 908.65 466.609 900.7H543.146L542.413 890.05C542.413 889.3 541.496 875.05 540.396 852.7C542.106 852.55 543.819 852.55 545.529 852.7H547.821C548.829 853.45 549.654 854.8 548.645 857.8C547.559 861.123 546.023 863.996 544.154 866.2C546.272 865.653 548.291 864.347 550.065 862.377C551.84 860.406 553.327 857.819 554.42 854.8C558.27 844.6 550.387 836.35 541.496 837.55H539.754C539.754 826.6 538.838 814.15 538.38 800.5C545.607 783.244 550.168 763.375 551.67 742.6C552.283 729.575 551.212 716.485 548.527 704.183C545.842 691.881 541.604 680.643 536.088 671.2V659.65C536.088 659.65 544.429 405.85 552.129 365.2L553.045 359.95L550.204 357.1C545.464 352.205 541.068 346.471 537.096 340C533.112 333.808 529.987 326.288 527.93 317.95C524.834 307.624 523.962 295.889 525.455 284.65C525.455 283.6 528.938 271.3 532.147 255.55L533.705 283.6C532.147 291.4 530.772 299.65 529.488 308.2C531.48 315.996 534.631 322.854 538.654 328.15C540.288 314.533 542.462 301.105 545.162 287.95V286L537.738 151C536.338 172.868 533.542 194.435 529.397 215.35C526.502 237.462 522.391 259.1 517.114 280ZM212.16 900.7C210.503 897.736 208.943 894.632 207.485 891.4V890.5C206.14 887.607 204.885 884.603 203.727 881.5C197.957 866.521 194.788 849.253 194.561 831.55C194.561 758.8 246.991 699.7 311.52 699.7C376.049 699.7 428.387 758.8 428.387 831.55C428.207 849.265 425.034 866.553 419.221 881.5C418.121 884.5 416.838 887.5 415.554 890.5L415.096 891.4C413.639 894.632 412.078 897.736 410.421 900.7C389.798 938.2 353.042 963.25 311.153 963.25C269.264 963.25 232.508 938.2 211.793 900.7M407.305 933.7C414.689 924.233 421.229 913.125 426.737 900.7H447.269L462.21 881.35H448.644C451.525 868.149 453.313 854.377 453.96 840.4C457.129 848.865 462 855.262 467.737 858.491C473.474 861.721 479.719 861.583 485.4 858.1C481.733 859.75 467.068 863.35 453.777 817.75C452.839 797.776 447.419 779.077 438.561 765.25C443.56 780.695 446.643 797.604 447.634 815.006C448.625 832.408 447.504 849.959 444.336 866.65C443.387 868.624 442.176 870.217 440.794 871.309C439.412 872.401 437.896 872.962 436.361 872.95C439.639 859.697 441.35 845.547 441.403 831.25C441.403 746.95 383.107 678.4 311.611 678.4C240.116 678.4 181.729 747.25 181.729 831.55C181.721 845.828 183.369 859.978 186.587 873.25C185.054 873.24 183.543 872.669 182.163 871.579C180.783 870.489 179.57 868.907 178.612 866.95C172.264 833.231 174.34 796.768 184.387 765.55C175.529 779.377 170.109 798.076 169.171 818.05C155.88 863.05 141.123 860.05 137.548 858.4C143.216 861.873 149.446 862.006 155.167 858.775C160.888 855.545 165.743 849.153 168.896 840.7C169.633 854.655 171.419 868.409 174.212 881.65H160.372L175.312 901H195.753C201.167 913.455 207.65 924.57 215.001 934C214.543 934 176.962 970 148.089 939.4C148.089 939.4 156.522 967.9 184.203 966.1H185.853C217.659 961 232.417 983.05 232.417 983.05C230.628 976.051 227.747 969.944 224.064 965.337C220.381 960.731 216.023 957.787 211.427 956.8C214.635 954.85 217.934 952.75 221.418 950.2C230.703 953.2 238.971 961.757 244.608 974.2L292.179 983.05C305.116 985.65 318.199 985.65 331.135 983.05L378.707 974.2C384.317 961.851 392.505 953.309 401.714 950.2C405.197 952.75 408.497 954.85 411.705 956.8C407.101 957.806 402.736 960.755 399.04 965.357C395.344 969.96 392.443 976.057 390.623 983.05C390.623 983.05 405.472 961 437.278 966.1H438.928C466.426 967.9 475.042 939.4 475.042 939.4C446.719 969.4 410.055 935.8 408.222 934"
      fill="url(#paint0_linear_281_2198)" />
    <path
      d="M79.8938 367L79.1334 366.35L78.8246 366.712L78.9101 367.18L79.8938 367ZM87.5933 356.65L88.5909 356.581L88.3856 353.597L86.7549 356.105L87.5933 356.65ZM92.9096 539.2L91.9113 539.259L93.9095 539.21L92.9096 539.2ZM136.082 881.35V882.35H138.388L136.812 880.666L136.082 881.35ZM92.9096 881.35H91.9096V882.35H92.9096V881.35ZM105.834 843.7L105.43 844.615L108.354 845.906L106.687 843.178L105.834 843.7ZM94.9261 840.4H93.9261V841.246L94.7609 841.386L94.9261 840.4ZM78.3356 866.8L78.0855 867.768L81.1353 868.556L79.0983 866.153L78.3356 866.8ZM73.8442 858.4L74.7947 858.089L74.7921 858.081L73.8442 858.4ZM74.6692 853.3V852.3H74.2825L73.9965 852.56L74.6692 853.3ZM76.9607 853.3V854.3H77.0057L77.0504 854.296L76.9607 853.3ZM82.002 853.3L83.0008 853.348L83.0471 852.39L82.0918 852.304L82.002 853.3ZM79.9855 890.65L78.9929 890.528L78.9891 890.559L78.9873 890.59L79.9855 890.65ZM79.3438 901.3L78.3457 901.24L78.2818 902.3H79.3438V901.3ZM155.972 901.3L156.741 900.661L156.442 900.3H155.972V901.3ZM161.288 921.85L161.813 922.701L161.849 922.679L161.883 922.654L161.288 921.85ZM136.998 914.2L137.83 913.644L136.093 914.625L136.998 914.2ZM168.254 900.7L169.088 900.148L169.045 900.082L168.992 900.024L168.254 900.7ZM167.155 899.5L166.371 900.121L166.393 900.149L166.417 900.175L167.155 899.5ZM153.406 883.15L154.168 882.503L154.162 882.495L153.406 883.15ZM151.847 881.35L152.603 880.695L152.594 880.685L152.584 880.674L151.847 881.35ZM130.857 860.65L130.083 861.283L130.149 861.363L130.229 861.428L130.857 860.65ZM93.6429 798.7L94.5782 798.346L94.5737 798.334L94.569 798.323L93.6429 798.7ZM92.7263 796.45L93.6524 796.073L93.6483 796.063L93.6441 796.053L92.7263 796.45ZM80.0771 743.05L79.0785 743.102L79.0791 743.114L79.08 743.125L80.0771 743.05ZM86.9517 696.7H87.9517L86.0183 696.341L86.9517 696.7ZM86.0351 759.85L85.0353 759.826L85.0324 759.95L85.0597 760.07L86.0351 759.85ZM97.0343 794.2L96.1149 794.593L98.0337 794.234L97.0343 794.2ZM98.0426 338.95L97.1383 338.523L97.0181 338.778L97.0484 339.058L98.0426 338.95ZM105.925 280L106.916 279.86L106.908 279.805L106.894 279.751L105.925 280ZM93.2762 214.3L94.2677 214.17L94.2635 214.137L94.2572 214.106L93.2762 214.3ZM84.9351 149.95L85.9331 149.886L83.9366 149.895L84.9351 149.95ZM77.5106 285.7L76.5121 285.645L76.5106 285.673V285.7H77.5106ZM77.5106 287.65H76.5106V287.752L76.5311 287.851L77.5106 287.65ZM84.0185 327.85L83.0256 327.969L83.3237 330.453L84.8199 328.448L84.0185 327.85ZM93.1846 307.9L94.152 308.153L94.204 307.955L94.1735 307.752L93.1846 307.9ZM88.8765 283.3L87.8781 283.244L87.8707 283.377L87.8982 283.507L88.8765 283.3ZM90.4348 255.25L91.4146 255.05L89.4363 255.194L90.4348 255.25ZM97.126 284.35L98.1155 284.206L98.1075 284.15L98.0934 284.097L97.126 284.35ZM94.9261 317.65L93.967 317.367L93.96 317.391L93.9541 317.415L94.9261 317.65ZM85.7601 340L84.9163 339.463L84.905 339.481L84.8945 339.499L85.7601 340ZM72.6526 358L73.3608 358.706L73.374 358.693L73.3866 358.679L72.6526 358ZM69.8112 360.85L69.103 360.144L68.7293 360.519L68.8291 361.038L69.8112 360.85ZM70.8194 366.1L71.8024 365.916L71.8015 365.911L70.8194 366.1ZM86.7683 660.55H87.7683V660.533L87.7678 660.517L86.7683 660.55ZM86.7683 672.1L87.6318 672.604L87.7683 672.37V672.1H86.7683ZM71.1861 743.5L70.1872 743.547L70.1879 743.561L70.189 743.576L71.1861 743.5ZM84.4768 801.4L85.4763 801.433L85.4835 801.218L85.4011 801.018L84.4768 801.4ZM83.1019 838.45V839.45H84.0609L84.101 838.492L83.1019 838.45ZM81.452 838.45L81.3222 839.441L81.3869 839.45H81.452V838.45ZM94.9261 190L93.9449 190.193L95.9254 190.038L94.9261 190ZM85.7601 116.65H84.7601V116.678L84.7617 116.707L85.7601 116.65ZM85.7601 112.6L85.2995 111.712L84.7601 111.992V112.6H85.7601ZM89.5182 110.65L89.0775 109.752L89.0675 109.757L89.0576 109.762L89.5182 110.65ZM123.708 55V54H122.708V55H123.708ZM498.874 55H499.874V54H498.874V55ZM532.972 110.65L533.432 109.762L533.423 109.758L532.972 110.65ZM536.73 112.6H537.73V111.992L537.19 111.712L536.73 112.6ZM536.73 116.65L537.728 116.698L537.73 116.674V116.65H536.73ZM528.297 190L527.298 190.041L529.28 190.182L528.297 190ZM525.73 127L526.73 126.959L526.708 126.421L526.246 126.143L525.73 127ZM487.783 74.35L488.772 74.2035L488.646 73.35H487.783V74.35ZM135.257 74.35V73.35H134.393L134.267 74.2049L135.257 74.35ZM97.3093 127L96.797 126.141L96.3305 126.419L96.31 126.962L97.3093 127ZM543.054 367L544.04 367.166L544.118 366.706L543.815 366.35L543.054 367ZM530.13 539.2L529.13 539.211L531.128 539.257L530.13 539.2ZM486.958 881.65L486.227 880.967L484.655 882.65H486.958V881.65ZM528.663 854.5L529.662 854.452L529.601 853.181L528.381 853.54L528.663 854.5ZM530.13 881.65V882.65H531.189L531.128 881.593L530.13 881.65ZM528.022 841L528.187 841.986L529.137 841.827L529.014 840.871L528.022 841ZM517.114 844.3L516.267 843.768L514.53 846.534L517.518 845.214L517.114 844.3ZM525.18 338.05L526.175 338.158L526.205 337.875L526.083 337.619L525.18 338.05ZM526.189 793.3L525.189 793.326L527.108 793.693L526.189 793.3ZM537.188 758.95L538.163 759.17L538.188 759.061V758.95H537.188ZM536.271 695.8L537.205 695.441L535.271 695.808L536.271 695.8ZM543.146 742.15L544.143 742.226L544.144 742.214L544.145 742.202L543.146 742.15ZM530.588 795.55L529.669 795.157L529.665 795.165L529.662 795.172L530.588 795.55ZM529.672 797.8L530.588 798.2L530.593 798.188L530.598 798.177L529.672 797.8ZM526.922 804.1L527.828 804.523L527.833 804.512L527.838 804.5L526.922 804.1ZM492.366 860.05L493.022 860.804L493.087 860.748L493.141 860.682L492.366 860.05ZM470.734 881.35L469.992 880.68L469.975 880.698L469.959 880.718L470.734 881.35ZM469.268 883.15L470.017 883.811L470.03 883.797L470.043 883.781L469.268 883.15ZM455.427 899.5L456.164 900.175L456.178 900.16L456.192 900.144L455.427 899.5ZM454.327 900.7L453.59 900.024L453.541 900.078L453.5 900.138L454.327 900.7ZM485.675 913.6L486.578 914.028L484.846 913.04L485.675 913.6ZM461.293 921.25L460.692 922.049L460.731 922.079L460.773 922.104L461.293 921.25ZM466.609 900.7V899.7H466.136L465.836 900.066L466.609 900.7ZM543.146 900.7V901.7H544.217L544.143 900.631L543.146 900.7ZM542.413 890.05H541.413V890.084L541.415 890.118L542.413 890.05ZM540.396 852.7L540.309 851.704L539.35 851.788L539.397 852.749L540.396 852.7ZM547.821 852.7L548.417 851.897L548.152 851.7H547.821V852.7ZM548.645 857.8L547.698 857.481L547.695 857.489L548.645 857.8ZM544.154 866.2L543.391 865.553L541.354 867.956L544.404 867.168L544.154 866.2ZM554.42 854.8L553.484 854.447L553.48 854.459L554.42 854.8ZM541.496 837.55V838.55H541.563L541.63 838.541L541.496 837.55ZM539.754 837.55H538.754V838.55H539.754V837.55ZM538.38 800.5L537.457 800.113L537.373 800.315L537.38 800.533L538.38 800.5ZM551.67 742.6L552.668 742.672L552.669 742.659L552.669 742.647L551.67 742.6ZM536.088 671.2H535.088V671.471L535.225 671.704L536.088 671.2ZM536.088 659.65L535.089 659.617L535.088 659.633V659.65H536.088ZM552.129 365.2L553.111 365.386L553.112 365.379L553.114 365.372L552.129 365.2ZM553.045 359.95L554.03 360.122L554.119 359.611L553.753 359.244L553.045 359.95ZM550.204 357.1L549.485 357.796L549.49 357.801L549.496 357.806L550.204 357.1ZM537.096 340L537.949 339.477L537.943 339.468L537.937 339.459L537.096 340ZM527.93 317.95L528.901 317.71L528.895 317.686L528.888 317.663L527.93 317.95ZM525.455 284.65L526.447 284.782L526.455 284.716V284.65H525.455ZM532.147 255.55L533.145 255.494L531.167 255.35L532.147 255.55ZM533.705 283.6L534.685 283.796L534.71 283.671L534.703 283.544L533.705 283.6ZM529.488 308.2L528.5 308.051L528.469 308.251L528.52 308.447L529.488 308.2ZM538.654 328.15L537.858 328.755L539.353 330.722L539.647 328.269L538.654 328.15ZM545.162 287.95L546.142 288.151L546.162 288.051V287.95H545.162ZM545.162 286H546.162V285.972L546.161 285.945L545.162 286ZM537.738 151L538.736 150.945L536.74 150.936L537.738 151ZM529.397 215.35L528.416 215.156L528.409 215.188L528.405 215.22L529.397 215.35ZM207.485 891.4H206.485V891.615L206.574 891.811L207.485 891.4ZM207.485 890.5H208.485V890.279L208.392 890.078L207.485 890.5ZM203.727 881.5L204.664 881.15L204.66 881.14L203.727 881.5ZM194.561 831.55H193.561L193.561 831.563L194.561 831.55ZM428.387 831.55L429.387 831.56V831.55H428.387ZM419.221 881.5L418.289 881.137L418.285 881.146L418.282 881.155L419.221 881.5ZM415.554 890.5L416.446 890.954L416.461 890.924L416.474 890.893L415.554 890.5ZM415.096 891.4L414.205 890.946L414.194 890.967L414.185 890.989L415.096 891.4ZM410.421 900.7L409.549 900.212L409.545 900.218L410.421 900.7ZM426.737 900.7V899.7H426.086L425.823 900.294L426.737 900.7ZM447.269 900.7V901.7H447.76L448.06 901.311L447.269 900.7ZM462.21 881.35L463.001 881.961L464.245 880.35H462.21V881.35ZM448.644 881.35L447.667 881.137L447.402 882.35H448.644V881.35ZM453.96 840.4L454.897 840.049L452.961 840.354L453.96 840.4ZM485.4 858.1L485.922 858.952L484.989 857.188L485.4 858.1ZM453.777 817.75L452.778 817.797L452.784 817.915L452.817 818.03L453.777 817.75ZM438.561 765.25L439.403 764.71L437.61 765.558L438.561 765.25ZM444.336 866.65L445.237 867.083L445.294 866.965L445.318 866.836L444.336 866.65ZM436.361 872.95L435.391 872.71L435.086 873.94L436.353 873.95L436.361 872.95ZM441.403 831.25L442.403 831.253V831.25H441.403ZM181.729 831.55L182.729 831.55V831.55H181.729ZM186.587 873.25L186.58 874.25L187.86 874.258L187.558 873.014L186.587 873.25ZM178.612 866.95L177.629 867.135L177.654 867.268L177.714 867.389L178.612 866.95ZM184.387 765.55L185.339 765.856L183.545 765.01L184.387 765.55ZM137.548 858.4L137.967 857.492L137.026 859.252L137.548 858.4ZM168.896 840.7L169.895 840.647L167.959 840.35L168.896 840.7ZM174.212 881.65V882.65H175.445L175.191 881.443L174.212 881.65ZM160.372 881.65V880.65H158.336L159.58 882.261L160.372 881.65ZM175.312 901L174.521 901.611L174.821 902H175.312V901ZM195.753 901L196.67 900.601L196.408 900H195.753V901ZM215.001 934V935H217.049L215.79 933.385L215.001 934ZM148.089 939.4L148.817 938.713L147.13 939.683L148.089 939.4ZM184.203 966.1V965.1H184.171L184.139 965.102L184.203 966.1ZM185.853 966.1V967.1H185.933L186.012 967.087L185.853 966.1ZM232.417 983.05L231.586 983.606L233.386 982.802L232.417 983.05ZM211.427 956.8L210.907 955.945L208.761 957.25L211.217 957.777L211.427 956.8ZM221.418 950.2L221.725 949.248L221.239 949.091L220.827 949.393L221.418 950.2ZM244.608 974.2L243.697 974.612L243.912 975.087L244.425 975.183L244.608 974.2ZM292.179 983.05L292.377 982.069L292.369 982.068L292.362 982.067L292.179 983.05ZM331.135 983.05L330.952 982.067L330.945 982.068L330.938 982.069L331.135 983.05ZM378.707 974.2L378.89 975.183L379.402 975.088L379.617 974.613L378.707 974.2ZM401.714 950.2L402.304 949.393L401.886 949.086L401.394 949.252L401.714 950.2ZM411.705 956.8L411.918 957.777L414.36 957.243L412.224 955.945L411.705 956.8ZM390.623 983.05L389.655 982.798L389.623 982.922V983.05H390.623ZM437.278 966.1L437.12 967.087L437.198 967.1H437.278V966.1ZM438.928 966.1L438.993 965.102L438.961 965.1H438.928V966.1ZM475.042 939.4L475.999 939.689L474.315 938.713L475.042 939.4ZM80.6542 367.649C83.3885 364.448 85.9865 360.955 88.4316 357.195L86.7549 356.105C84.354 359.797 81.8076 363.22 79.1334 366.35L80.6542 367.649ZM86.5956 356.719C90.7644 417.292 92.5394 478.242 91.9096 539.189L93.9095 539.21C94.5398 478.21 92.7633 417.207 88.5909 356.581L86.5956 356.719ZM93.9079 539.141C90.6118 483.255 86.7583 399 80.8775 366.82L78.9101 367.18C84.7618 399.2 88.6078 483.245 91.9113 539.259L93.9079 539.141ZM94.0027 855.159C108.704 859.477 122.77 868.598 135.352 882.033L136.812 880.666C124.033 867.021 109.671 857.676 94.5663 853.24L94.0027 855.159ZM136.082 880.35H92.9096V882.35H136.082V880.35ZM93.9096 881.35C93.9096 874.928 94.7301 865.716 95.2833 854.248L93.2857 854.152C92.739 865.483 91.9096 874.872 91.9096 881.35H93.9096ZM94.6833 826.167C98.1781 832.789 101.672 838.807 104.98 844.221L106.687 843.178C103.396 837.792 99.9236 831.811 96.4521 825.233L94.6833 826.167ZM106.238 842.785C102.589 841.174 98.8616 840.045 95.0914 839.414L94.7609 841.386C98.3591 841.989 101.927 843.068 105.43 844.615L106.238 842.785ZM95.9261 840.4C95.9261 835.745 95.9271 830.851 96.5608 825.518L94.5747 825.282C93.9252 830.749 93.9261 835.755 93.9261 840.4H95.9261ZM67.1293 855.74C68.2575 858.856 69.8043 861.562 71.6812 863.646L73.1674 862.307C71.4953 860.451 70.0682 857.982 69.0099 855.059L67.1293 855.74ZM71.6812 863.646C73.559 865.731 75.74 867.162 78.0855 867.768L78.5857 865.831C76.6945 865.343 74.8387 864.163 73.1674 862.307L71.6812 863.646ZM79.0983 866.153C77.3292 864.066 75.8494 861.314 74.7947 858.089L72.8937 858.711C74.0125 862.132 75.6051 865.125 77.5728 867.446L79.0983 866.153ZM74.7921 858.081C74.3346 856.72 74.3707 855.844 74.5311 855.279C74.6905 854.719 75.006 854.345 75.3419 854.04L73.9965 852.56C73.5074 853.004 72.9062 853.681 72.6073 854.733C72.3095 855.781 72.3456 857.08 72.8963 858.718L74.7921 858.081ZM74.6692 854.3H76.9607V852.3H74.6692V854.3ZM77.0504 854.296C78.6699 854.15 80.2928 854.15 81.9122 854.296L82.0918 852.304C80.3529 852.147 78.6098 852.147 76.8709 852.304L77.0504 854.296ZM81.0032 853.252C79.9018 876.082 79.0787 889.826 78.9929 890.528L80.9781 890.771C81.0756 889.973 81.9024 876.117 83.0008 853.348L81.0032 853.252ZM78.9873 890.59L78.3457 901.24L80.342 901.36L80.9837 890.71L78.9873 890.59ZM79.3438 902.3H155.972V900.3H79.3438V902.3ZM155.203 901.938C158.481 905.888 161.134 909.86 162.288 913.299C162.863 915.012 163.042 916.522 162.801 917.799C162.565 919.047 161.918 920.141 160.694 921.046L161.883 922.654C163.5 921.458 164.434 919.928 164.766 918.17C165.092 916.443 164.824 914.569 164.184 912.663C162.909 908.865 160.063 904.662 156.741 900.661L155.203 901.938ZM160.764 920.998C156.906 923.376 152.774 923.939 148.784 922.682L148.183 924.59C152.768 926.034 157.499 925.36 161.813 922.701L160.764 920.998ZM148.784 922.682C144.77 921.418 140.963 918.33 137.83 913.644L136.167 914.755C139.479 919.709 143.622 923.154 148.183 924.59L148.784 922.682ZM136.093 914.625C142.018 927.223 151.048 934.268 159.219 936.666C167.293 939.034 174.943 936.88 177.174 930.426L175.284 929.773C173.574 934.719 167.429 936.99 159.782 934.746C152.234 932.531 143.619 925.927 137.903 913.774L136.093 914.625ZM177.174 930.426C178.234 927.359 178.21 923.911 177.631 920.528C177.051 917.137 175.903 913.742 174.642 910.738C173.38 907.729 171.994 905.087 170.925 903.198C170.39 902.253 169.933 901.494 169.609 900.969C169.447 900.707 169.318 900.504 169.229 900.365C169.185 900.295 169.15 900.242 169.126 900.206C169.114 900.187 169.105 900.173 169.099 900.164C169.096 900.159 169.093 900.155 169.091 900.152C169.091 900.151 169.09 900.15 169.089 900.149C169.089 900.149 169.089 900.148 169.089 900.148C169.089 900.148 169.088 900.148 168.254 900.7C167.421 901.252 167.421 901.252 167.421 901.252C167.421 901.252 167.421 901.252 167.421 901.252C167.421 901.252 167.421 901.253 167.422 901.254C167.423 901.255 167.425 901.258 167.427 901.262C167.432 901.27 167.44 901.282 167.451 901.298C167.472 901.33 167.504 901.379 167.546 901.444C167.629 901.575 167.752 901.769 167.908 902.021C168.22 902.526 168.664 903.263 169.184 904.183C170.227 906.025 171.574 908.595 172.798 911.512C174.023 914.432 175.114 917.674 175.66 920.865C176.207 924.063 176.194 927.14 175.284 929.773L177.174 930.426ZM168.992 900.024L167.892 898.824L166.417 900.175L167.517 901.375L168.992 900.024ZM167.938 898.878C163.525 893.311 158.734 887.883 154.168 882.503L152.643 883.797C157.243 889.217 161.985 894.588 166.371 900.121L167.938 898.878ZM154.162 882.495L152.603 880.695L151.091 882.004L152.649 883.804L154.162 882.495ZM152.584 880.674C145.714 873.178 138.609 865.625 131.485 859.872L130.229 861.428C137.22 867.074 144.232 874.521 151.11 882.025L152.584 880.674ZM131.631 860.016C118.694 844.216 107.139 825.562 97.2981 804.575L95.4873 805.424C105.39 826.542 117.029 845.34 130.083 861.283L131.631 860.016ZM97.289 804.556C96.264 802.484 95.3606 800.414 94.5782 798.346L92.7076 799.054C93.514 801.185 94.4437 803.315 95.4964 805.443L97.289 804.556ZM94.569 798.323L93.6524 796.073L91.8002 796.827L92.7168 799.077L94.569 798.323ZM93.6441 796.053C86.8487 780.347 82.526 762.112 81.0743 742.974L79.08 743.125C80.5466 762.458 84.9151 780.914 91.8085 796.847L93.6441 796.053ZM81.0758 742.997C80.2309 726.861 82.6278 710.729 87.885 697.059L86.0183 696.341C80.6507 710.299 78.2204 726.714 79.0785 743.102L81.0758 742.997ZM85.9517 696.7C85.9517 718.887 85.4936 740.177 85.0353 759.826L87.0348 759.873C87.4931 740.223 87.9517 718.912 87.9517 696.7H85.9517ZM85.0597 760.07C87.825 772.298 91.5397 783.901 96.1149 794.593L97.9537 793.806C93.4297 783.234 89.7511 771.748 87.0104 759.629L85.0597 760.07ZM98.0337 794.234C98.6755 775.253 101.403 684.272 102.732 586.613C104.061 488.986 103.994 384.591 99.0368 338.842L97.0484 339.058C101.99 384.658 102.061 488.913 100.732 586.586C99.403 684.228 96.6763 775.196 96.0349 794.166L98.0337 794.234ZM98.9469 339.377C102.894 331.014 105.649 321.341 107.024 311.057L105.042 310.792C103.691 320.897 100.987 330.368 97.1383 338.523L98.9469 339.377ZM107.024 311.057C108.399 300.773 108.362 290.119 106.916 279.86L104.935 280.14C106.356 290.217 106.393 300.688 105.042 310.792L107.024 311.057ZM106.894 279.751C101.449 258.582 97.2221 236.627 94.2677 214.17L92.2848 214.43C95.2493 236.965 99.4915 259 104.957 280.249L106.894 279.751ZM94.2572 214.106C90.1208 193.235 87.3307 171.711 85.9331 149.886L83.9372 150.014C85.3403 171.924 88.1414 193.535 92.2953 214.494L94.2572 214.106ZM83.9366 149.895L76.5121 285.645L78.5091 285.755L85.9336 150.005L83.9366 149.895ZM76.5106 285.7V287.65H78.5106V285.7H76.5106ZM76.5311 287.851C79.2256 300.978 81.3951 314.379 83.0256 327.969L85.0114 327.731C83.3744 314.087 81.1961 300.631 78.4902 287.449L76.5311 287.851ZM84.8199 328.448C88.9018 322.979 92.0949 316.012 94.152 308.153L92.2172 307.647C90.2124 315.306 87.1172 322.026 83.2171 327.252L84.8199 328.448ZM94.1735 307.752C92.889 299.193 91.5107 290.921 89.8549 283.093L87.8982 283.507C89.5422 291.279 90.9137 299.507 92.1957 308.048L94.1735 307.752ZM89.875 283.355L91.4332 255.305L89.4363 255.194L87.8781 283.244L89.875 283.355ZM89.4549 255.45C92.6681 271.225 95.8813 283.544 96.1586 284.603L98.0934 284.097C97.8207 283.056 94.6176 270.775 91.4146 255.05L89.4549 255.45ZM96.1364 284.494C97.7471 295.542 96.9775 307.157 93.967 317.367L95.8853 317.933C98.9814 307.433 99.7658 295.525 98.1155 284.206L96.1364 284.494ZM93.9541 317.415C91.9349 325.764 88.8475 333.281 84.9163 339.463L86.6039 340.537C90.6709 334.141 93.8355 326.414 95.8981 317.885L93.9541 317.415ZM84.8945 339.499C80.9928 346.242 76.6379 352.22 71.9186 357.321L73.3866 358.679C78.2175 353.458 82.6582 347.357 86.6256 340.501L84.8945 339.499ZM71.9445 357.294L69.103 360.144L70.5193 361.556L73.3608 358.706L71.9445 357.294ZM68.8291 361.038L69.8374 366.289L71.8015 365.911L70.7932 360.661L68.8291 361.038ZM69.8365 366.284C71.7247 376.373 73.6698 399.788 75.523 429.32C77.3742 458.821 79.1298 494.35 80.6478 528.613C82.1658 562.875 83.4461 595.868 84.3469 620.295C84.7972 632.509 85.1528 642.581 85.3957 649.6C85.5171 653.109 85.6104 655.855 85.6734 657.723C85.7048 658.657 85.7287 659.372 85.7447 659.854C85.7527 660.094 85.7588 660.277 85.7628 660.399C85.7648 660.46 85.7663 660.506 85.7674 660.536C85.7679 660.552 85.7682 660.563 85.7685 660.571C85.7686 660.575 85.7687 660.578 85.7688 660.58C85.7688 660.582 85.7689 660.583 86.7683 660.55C87.7678 660.517 87.7678 660.516 87.7677 660.514C87.7676 660.512 87.7675 660.509 87.7674 660.505C87.7672 660.498 87.7668 660.486 87.7663 660.471C87.7653 660.44 87.7637 660.394 87.7617 660.333C87.7577 660.21 87.7516 660.028 87.7436 659.787C87.7276 659.306 87.7037 658.59 87.6722 657.656C87.6093 655.787 87.516 653.04 87.3945 649.53C87.1515 642.51 86.7959 632.437 86.3455 620.222C85.4446 595.791 84.1641 562.793 82.6458 528.524C81.1276 494.256 79.3714 458.713 77.519 429.194C75.6685 399.705 73.718 376.152 71.8024 365.916L69.8365 366.284ZM85.7683 660.55V672.1H87.7683V660.55H85.7683ZM85.9049 671.595C80.3288 681.141 76.0561 692.481 73.3522 704.87L75.3062 705.297C77.972 693.082 82.1761 681.944 87.6318 672.604L85.9049 671.595ZM73.3522 704.87C70.6481 717.261 69.5706 730.438 70.1872 743.547L72.185 743.453C71.5763 730.512 72.6407 717.51 75.3062 705.297L73.3522 704.87ZM70.189 743.576C71.7822 764.411 76.357 784.353 83.5525 801.781L85.4011 801.018C78.2944 783.805 73.7621 764.072 72.1831 743.424L70.189 743.576ZM83.4774 801.366C83.0191 815.014 82.5609 827.461 82.1028 838.408L84.101 838.492C84.5595 827.538 85.0179 815.085 85.4763 801.433L83.4774 801.366ZM83.1019 837.45H81.452V839.45H83.1019V837.45ZM81.5818 837.458C76.6636 836.814 72.1009 838.705 69.2871 842.169C66.46 845.649 65.4578 850.64 67.5007 856.053L69.3718 855.347C67.565 850.559 68.4876 846.325 70.8394 843.43C73.2043 840.519 77.0745 838.885 81.3222 839.441L81.5818 837.458ZM95.9074 189.807C91.2372 166.023 88.1691 141.472 86.7585 116.593L84.7617 116.707C86.1774 141.674 89.2565 166.316 93.9449 190.193L95.9074 189.807ZM86.7601 116.65V112.6H84.7601V116.65H86.7601ZM86.2206 113.488L89.9787 111.538L89.0576 109.762L85.2995 111.712L86.2206 113.488ZM89.9589 111.548C94.6499 109.245 103.297 103.509 110.784 95.4101C118.265 87.3187 124.708 76.7356 124.708 64.75H122.708C122.708 76.0144 116.639 86.1313 109.316 94.0524C102 101.966 93.5525 107.555 89.0775 109.752L89.9589 111.548ZM124.708 64.75V55H122.708V64.75H124.708ZM123.708 56H498.874V54H123.708V56ZM497.874 55V64.75H499.874V55H497.874ZM497.874 64.75C497.874 76.7378 504.365 87.3213 511.855 95.4106C519.353 103.509 527.974 109.242 532.52 111.542L533.423 109.758C529.078 107.558 520.65 101.966 513.322 94.0518C505.986 86.1287 499.874 76.0122 499.874 64.75H497.874ZM532.511 111.538L536.269 113.488L537.19 111.712L533.432 109.762L532.511 111.538ZM535.73 112.6V116.65H537.73V112.6H535.73ZM535.731 116.602C534.541 141.433 531.719 165.981 527.313 189.818L529.28 190.182C533.702 166.253 536.535 141.617 537.728 116.698L535.731 116.602ZM529.296 189.959L526.73 126.959L524.731 127.041L527.298 190.041L529.296 189.959ZM526.246 126.143C516.589 120.329 493.103 103.438 488.772 74.2035L486.794 74.4965C491.262 104.662 515.44 121.971 525.215 127.857L526.246 126.143ZM487.783 73.35H135.257V75.35H487.783V73.35ZM134.267 74.2049C129.936 103.737 106.545 120.327 96.797 126.141L97.8216 127.859C107.689 121.973 131.778 104.963 136.246 74.4951L134.267 74.2049ZM96.31 126.962L93.9268 189.962L95.9254 190.038L98.3086 127.038L96.31 126.962ZM534.516 357.195C536.962 360.955 539.56 364.448 542.294 367.649L543.815 366.35C541.14 363.22 538.594 359.797 536.193 356.105L534.516 357.195ZM542.068 366.834C536.648 399.005 532.337 483.241 529.132 539.143L531.128 539.257C534.339 483.259 538.644 399.195 544.04 367.166L542.068 366.834ZM531.13 539.189C530.468 478.245 532.212 417.294 536.352 356.718L534.357 356.582C530.213 417.21 528.467 478.214 529.13 539.211L531.13 539.189ZM487.689 882.332C500.239 868.901 514.274 859.78 528.946 855.459L528.381 853.54C513.305 857.98 498.974 867.326 486.227 880.967L487.689 882.332ZM527.665 854.548C528.215 865.953 528.765 875.259 529.132 881.706L531.128 881.593C530.762 875.141 530.212 865.846 529.662 854.452L527.665 854.548ZM530.13 880.65H486.958V882.65H530.13V880.65ZM526.38 826C526.38 831.089 526.379 836.104 527.03 841.128L529.014 840.871C528.382 835.996 528.38 831.111 528.38 826H526.38ZM527.857 840.014C524.086 840.645 520.359 841.774 516.71 843.385L517.518 845.214C521.021 843.668 524.589 842.589 528.187 841.986L527.857 840.014ZM517.961 844.832C521.366 839.41 524.864 833.385 528.27 826.757L526.491 825.843C523.114 832.414 519.645 838.389 516.267 843.768L517.961 844.832ZM516.123 279.867C514.762 290.008 514.785 300.513 516.192 310.638L518.173 310.363C516.791 300.418 516.768 290.094 518.105 280.133L516.123 279.867ZM516.192 310.638C517.598 320.762 520.356 330.27 524.278 338.481L526.083 337.619C522.259 329.615 519.555 320.309 518.173 310.363L516.192 310.638ZM524.186 337.942C519.228 383.692 519.231 488.087 520.594 585.714C521.958 683.372 524.685 774.355 525.189 793.326L527.188 793.273C526.684 774.295 523.957 683.328 522.594 585.686C521.23 488.013 521.233 383.758 526.175 338.158L524.186 337.942ZM527.108 793.693C531.683 783.001 535.398 771.398 538.163 759.17L536.213 758.729C533.472 770.848 529.793 782.334 525.269 792.906L527.108 793.693ZM538.188 758.95C538.188 739.315 537.454 717.935 537.271 695.792L535.271 695.808C535.455 718.064 536.188 739.285 536.188 758.95H538.188ZM535.338 696.159C540.595 709.829 542.992 725.961 542.147 742.098L544.145 742.202C545.003 725.814 542.572 709.399 537.205 695.441L535.338 696.159ZM542.149 742.074C540.688 761.184 536.4 779.406 529.669 795.157L531.508 795.943C538.334 779.968 542.667 761.529 544.143 742.226L542.149 742.074ZM529.662 795.172L528.746 797.422L530.598 798.177L531.514 795.927L529.662 795.172ZM528.755 797.4L526.005 803.7L527.838 804.5L530.588 798.2L528.755 797.4ZM526.016 803.676C516.152 824.769 504.567 843.524 491.591 859.417L493.141 860.682C506.233 844.646 517.903 825.747 527.828 804.523L526.016 803.676ZM491.71 859.295C484.241 865.79 476.992 872.929 469.992 880.68L471.476 882.02C478.426 874.326 485.618 867.244 493.022 860.804L491.71 859.295ZM469.959 880.718L468.492 882.518L470.043 883.781L471.509 881.981L469.959 880.718ZM468.518 882.488C463.741 887.899 459.323 893.322 454.662 898.856L456.192 900.144C460.88 894.578 465.261 889.2 470.017 883.811L468.518 882.488ZM454.69 898.824L453.59 900.024L455.064 901.375L456.164 900.175L454.69 898.824ZM454.327 900.7C453.5 900.138 453.5 900.138 453.499 900.138C453.499 900.138 453.499 900.139 453.499 900.139C453.498 900.14 453.497 900.141 453.497 900.142C453.495 900.145 453.492 900.149 453.489 900.153C453.483 900.163 453.474 900.176 453.462 900.194C453.438 900.229 453.404 900.281 453.359 900.348C453.271 900.483 453.143 900.68 452.982 900.934C452.66 901.442 452.206 902.178 451.675 903.096C450.614 904.93 449.239 907.498 447.988 910.432C446.737 913.363 445.599 916.685 445.027 920.021C444.457 923.352 444.439 926.762 445.499 929.826L447.389 929.173C446.478 926.538 446.461 923.497 446.999 920.359C447.535 917.227 448.614 914.061 449.827 911.217C451.039 908.377 452.374 905.883 453.406 904.097C453.922 903.206 454.362 902.493 454.671 902.005C454.826 901.761 454.948 901.573 455.031 901.447C455.072 901.385 455.103 901.337 455.124 901.306C455.135 901.29 455.142 901.279 455.147 901.271C455.15 901.268 455.152 901.265 455.153 901.263C455.153 901.263 455.154 901.262 455.154 901.262C455.154 901.262 455.154 901.262 455.154 901.262C455.154 901.262 455.154 901.262 454.327 900.7ZM445.499 929.826C447.73 936.279 455.356 938.435 463.42 936.065C471.579 933.668 480.608 926.623 486.578 914.028L484.771 913.171C479.009 925.327 470.393 931.932 462.856 934.147C455.223 936.389 449.1 934.12 447.389 929.173L445.499 929.826ZM484.846 913.04C481.689 917.71 477.866 920.787 473.838 922.051L474.437 923.959C479.007 922.526 483.166 919.096 486.503 914.16L484.846 913.04ZM473.838 922.051C469.834 923.308 465.688 922.754 461.813 920.396L460.773 922.104C465.103 924.74 469.843 925.401 474.437 923.959L473.838 922.051ZM461.894 920.45C460.694 919.549 460.06 918.457 459.834 917.207C459.602 915.926 459.787 914.414 460.362 912.699C461.517 909.257 464.15 905.283 467.383 901.333L465.836 900.066C462.561 904.066 459.74 908.268 458.466 912.063C457.827 913.967 457.553 915.839 457.866 917.563C458.184 919.318 459.097 920.851 460.692 922.049L461.894 920.45ZM466.609 901.7H543.146V899.7H466.609V901.7ZM544.143 900.631L543.41 889.981L541.415 890.118L542.148 900.768L544.143 900.631ZM543.413 890.05C543.413 889.637 543.18 885.828 542.815 879.418C542.449 872.97 541.945 863.822 541.395 852.651L539.397 852.749C539.947 863.927 540.452 873.08 540.818 879.531C541.002 882.757 541.151 885.308 541.254 887.098C541.305 887.993 541.345 888.697 541.372 889.2C541.386 889.452 541.396 889.651 541.403 889.798C541.406 889.872 541.409 889.931 541.411 889.976C541.411 889.998 541.412 890.016 541.412 890.029C541.412 890.036 541.412 890.041 541.413 890.044C541.413 890.048 541.413 890.05 541.413 890.05H543.413ZM540.483 853.696C542.135 853.551 543.79 853.551 545.442 853.696L545.616 851.704C543.848 851.549 542.077 851.549 540.309 851.704L540.483 853.696ZM545.529 853.7H547.821V851.7H545.529V853.7ZM547.224 853.502C547.591 853.775 547.884 854.12 548.02 854.654C548.163 855.212 548.164 856.093 547.698 857.481L549.593 858.118C550.135 856.507 550.228 855.213 549.958 854.158C549.682 853.079 549.058 852.374 548.417 851.897L547.224 853.502ZM547.695 857.489C546.64 860.714 545.16 863.466 543.391 865.553L544.917 866.846C546.885 864.526 548.477 861.532 549.596 858.111L547.695 857.489ZM544.404 867.168C546.75 866.562 548.931 865.131 550.808 863.046L549.322 861.707C547.651 863.563 545.795 864.743 543.904 865.232L544.404 867.168ZM550.808 863.046C552.685 860.962 554.232 858.256 555.36 855.14L553.48 854.459C552.421 857.382 550.994 859.851 549.322 861.707L550.808 863.046ZM555.356 855.153C557.401 849.733 556.346 844.742 553.511 841.268C550.691 837.812 546.154 835.912 541.362 836.559L541.63 838.541C545.729 837.987 549.579 839.613 551.961 842.532C554.328 845.432 555.289 849.667 553.484 854.447L555.356 855.153ZM541.496 836.55H539.754V838.55H541.496V836.55ZM540.754 837.55C540.754 826.584 539.835 814.054 539.379 800.466L537.38 800.533C537.84 814.246 538.754 826.616 538.754 837.55H540.754ZM539.302 800.886C546.576 783.519 551.158 763.543 552.668 742.672L550.673 742.528C549.177 763.207 544.638 782.968 537.457 800.113L539.302 800.886ZM552.669 742.647C553.286 729.538 552.208 716.361 549.504 703.97L547.55 704.396C550.216 716.61 551.28 729.612 550.671 742.553L552.669 742.647ZM549.504 703.97C546.8 691.581 542.528 680.241 536.951 670.695L535.225 671.704C540.68 681.044 544.884 692.182 547.55 704.396L549.504 703.97ZM537.088 671.2V659.65H535.088V671.2H537.088ZM536.088 659.65C537.087 659.683 537.087 659.682 537.088 659.68C537.088 659.678 537.088 659.675 537.088 659.671C537.088 659.663 537.088 659.652 537.089 659.637C537.09 659.606 537.091 659.56 537.094 659.499C537.098 659.377 537.104 659.194 537.112 658.954C537.128 658.472 537.151 657.758 537.183 656.823C537.246 654.955 537.339 652.209 537.461 648.7C537.704 641.681 538.06 631.609 538.511 619.395C539.413 594.968 540.696 561.975 542.22 527.713C543.744 493.45 545.508 457.921 547.372 428.42C549.238 398.889 551.2 375.474 553.111 365.386L551.146 365.014C549.207 375.251 547.239 398.805 545.376 428.294C543.511 457.813 541.746 493.356 540.222 527.624C538.698 561.893 537.415 594.891 536.512 619.322C536.061 631.537 535.705 641.61 535.462 648.63C535.34 652.14 535.247 654.887 535.184 656.756C535.153 657.69 535.129 658.406 535.113 658.887C535.105 659.128 535.099 659.31 535.095 659.433C535.093 659.494 535.091 659.54 535.09 659.571C535.09 659.586 535.089 659.598 535.089 659.605C535.089 659.609 535.089 659.612 535.089 659.614C535.089 659.616 535.089 659.617 536.088 659.65ZM553.114 365.372L554.03 360.122L552.06 359.778L551.143 365.028L553.114 365.372ZM553.753 359.244L550.912 356.394L549.496 357.806L552.337 360.656L553.753 359.244ZM550.922 356.404C546.238 351.568 541.887 345.892 537.949 339.477L536.244 340.523C540.25 347.049 544.689 352.843 549.485 357.796L550.922 356.404ZM537.937 339.459C534.022 333.373 530.935 325.959 528.901 317.71L526.959 318.189C529.038 326.617 532.203 334.242 536.255 340.541L537.937 339.459ZM528.888 317.663C525.835 307.48 524.971 295.888 526.447 284.782L524.464 284.518C522.953 295.89 523.834 307.769 526.972 318.237L528.888 317.663ZM526.455 284.65C526.455 284.68 526.454 284.647 526.481 284.494C526.503 284.362 526.539 284.184 526.589 283.956C526.687 283.502 526.833 282.884 527.021 282.112C527.399 280.562 527.93 278.45 528.569 275.851C529.842 270.67 531.519 263.643 533.126 255.75L531.167 255.35C529.566 263.207 527.897 270.205 526.627 275.374C525.994 277.95 525.454 280.094 525.078 281.638C524.89 282.413 524.738 283.051 524.634 283.532C524.582 283.772 524.54 283.981 524.51 284.152C524.484 284.303 524.455 284.489 524.455 284.65H526.455ZM531.148 255.605L532.706 283.655L534.703 283.544L533.145 255.494L531.148 255.605ZM532.724 283.404C531.162 291.225 529.784 299.492 528.5 308.051L530.477 308.348C531.759 299.808 533.131 291.575 534.685 283.796L532.724 283.404ZM528.52 308.447C530.538 316.346 533.739 323.333 537.858 328.755L539.451 327.545C535.523 322.375 532.423 315.646 530.457 307.952L528.52 308.447ZM539.647 328.269C541.278 314.679 543.447 301.278 546.142 288.151L544.183 287.749C541.477 300.931 539.299 314.387 537.662 328.031L539.647 328.269ZM546.162 287.95V286H544.162V287.95H546.162ZM546.161 285.945L538.736 150.945L536.739 151.055L544.164 286.055L546.161 285.945ZM536.74 150.936C535.342 172.761 532.552 194.285 528.416 215.156L530.378 215.544C534.532 194.585 537.333 172.974 538.736 151.064L536.74 150.936ZM528.405 215.22C525.516 237.295 521.412 258.894 516.145 279.755L518.084 280.245C523.371 259.306 527.489 237.629 530.388 215.48L528.405 215.22ZM213.033 900.212C211.391 897.274 209.843 894.195 208.397 890.989L206.574 891.811C208.042 895.068 209.616 898.198 211.287 901.188L213.033 900.212ZM208.485 891.4V890.5H206.485V891.4H208.485ZM208.392 890.078C207.058 887.209 205.813 884.229 204.664 881.15L202.79 881.849C203.957 884.976 205.221 888.004 206.578 890.921L208.392 890.078ZM204.66 881.14C198.937 866.283 195.787 849.134 195.561 831.537L193.561 831.563C193.79 849.372 196.977 866.759 202.794 881.859L204.66 881.14ZM195.561 831.55C195.561 759.236 247.652 700.7 311.52 700.7V698.7C246.329 698.7 193.561 758.363 193.561 831.55H195.561ZM311.52 700.7C375.386 700.7 427.387 759.235 427.387 831.55H429.387C429.387 758.365 376.711 698.7 311.52 698.7V700.7ZM427.387 831.54C427.208 849.147 424.054 866.314 418.289 881.137L420.153 881.862C426.014 866.792 429.206 849.383 429.387 831.56L427.387 831.54ZM418.282 881.155C417.193 884.126 415.92 887.102 414.635 890.106L416.474 890.893C417.755 887.897 419.049 884.873 420.16 881.844L418.282 881.155ZM414.663 890.046L414.205 890.946L415.987 891.854L416.446 890.954L414.663 890.046ZM414.185 890.989C412.738 894.195 411.191 897.274 409.549 900.212L411.294 901.188C412.966 898.198 414.539 895.068 416.008 891.811L414.185 890.989ZM409.545 900.218C389.068 937.452 352.62 962.25 311.153 962.25V964.25C353.464 964.25 390.528 938.948 411.298 901.182L409.545 900.218ZM311.153 962.25C269.686 962.25 233.238 937.452 212.669 900.216L210.918 901.183C231.779 938.948 268.842 964.25 311.153 964.25V962.25ZM408.094 934.315C415.534 924.775 422.115 913.596 427.651 901.105L425.823 900.294C420.344 912.655 413.844 923.69 406.517 933.085L408.094 934.315ZM426.737 901.7H447.269V899.7H426.737V901.7ZM448.06 901.311L463.001 881.961L461.418 880.739L446.477 900.089L448.06 901.311ZM462.21 880.35H448.644V882.35H462.21V880.35ZM449.621 881.563C452.514 868.306 454.309 854.477 454.959 840.446L452.961 840.354C452.316 854.276 450.535 867.993 447.667 881.137L449.621 881.563ZM453.024 840.75C456.245 849.354 461.239 855.981 467.247 859.363L468.228 857.62C462.762 854.543 458.014 848.376 454.897 840.049L453.024 840.75ZM467.247 859.363C473.304 862.773 479.937 862.622 485.922 858.952L484.877 857.247C479.501 860.543 473.643 860.669 468.228 857.62L467.247 859.363ZM484.989 857.188C484.177 857.554 482.739 858.035 480.849 857.906C478.969 857.778 476.567 857.042 473.819 854.86C468.282 850.464 461.366 840.213 454.737 817.47L452.817 818.03C459.479 840.887 466.541 851.636 472.576 856.427C475.614 858.839 478.397 859.744 480.713 859.901C483.019 860.058 484.79 859.471 485.81 859.012L484.989 857.188ZM454.776 817.703C453.831 797.592 448.374 778.714 439.403 764.71L437.719 765.789C446.464 779.439 451.846 797.96 452.778 817.797L454.776 817.703ZM437.61 765.558C442.58 780.916 445.649 797.74 446.636 815.063L448.633 814.95C447.637 797.468 444.539 780.474 439.513 764.942L437.61 765.558ZM446.636 815.063C447.622 832.386 446.506 849.855 443.353 866.463L445.318 866.836C448.502 850.064 449.628 832.431 448.633 814.95L446.636 815.063ZM443.435 866.217C442.536 868.086 441.411 869.547 440.174 870.524L441.414 872.094C442.94 870.888 444.238 869.161 445.237 867.083L443.435 866.217ZM440.174 870.524C438.943 871.497 437.643 871.96 436.369 871.95L436.353 873.95C438.149 873.964 439.881 873.305 441.414 872.094L440.174 870.524ZM437.332 873.19C440.63 859.856 442.35 845.626 442.403 831.253L440.403 831.246C440.35 845.467 438.649 859.538 435.391 872.71L437.332 873.19ZM442.403 831.25C442.403 746.557 383.806 677.4 311.611 677.4V679.4C382.408 679.4 440.403 747.343 440.403 831.25H442.403ZM311.611 677.4C239.416 677.4 180.729 746.858 180.729 831.55H182.729C182.729 747.641 240.817 679.4 311.611 679.4V677.4ZM180.729 831.549C180.721 845.903 182.378 860.133 185.615 873.485L187.558 873.014C184.361 859.823 182.721 845.752 182.729 831.55L180.729 831.549ZM186.593 872.25C185.316 872.242 184.015 871.768 182.783 870.794L181.543 872.364C183.071 873.571 184.793 874.238 186.58 874.25L186.593 872.25ZM182.783 870.794C181.545 869.817 180.418 868.365 179.51 866.51L177.714 867.389C178.722 869.45 180.021 871.161 181.543 872.364L182.783 870.794ZM179.595 866.765C173.276 833.202 175.346 796.909 185.339 765.856L183.435 765.243C173.335 796.628 171.252 833.26 177.629 867.135L179.595 866.765ZM183.545 765.01C174.574 779.014 169.117 797.892 168.172 818.003L170.17 818.097C171.102 798.26 176.484 779.739 185.229 766.089L183.545 765.01ZM168.212 817.766C161.585 840.205 154.646 850.464 149.089 854.94C143.626 859.339 139.457 858.179 137.967 857.492L137.129 859.308C139.214 860.27 144.211 861.435 150.343 856.497C156.381 851.635 163.467 840.894 170.13 818.333L168.212 817.766ZM137.026 859.252C142.999 862.912 149.617 863.058 155.659 859.646L154.676 857.905C149.275 860.954 143.433 860.833 138.071 857.547L137.026 859.252ZM155.659 859.646C161.651 856.263 166.628 849.642 169.833 841.049L167.959 840.35C164.858 848.665 160.126 854.827 154.676 857.905L155.659 859.646ZM167.898 840.753C168.637 854.758 170.429 868.563 173.234 881.856L175.191 881.443C172.408 868.255 170.629 854.553 169.895 840.647L167.898 840.753ZM174.212 880.65H160.372V882.65H174.212V880.65ZM159.58 882.261L174.521 901.611L176.104 900.389L161.163 881.039L159.58 882.261ZM175.312 902H195.753V900H175.312V902ZM194.836 901.398C200.279 913.921 206.803 925.11 214.213 934.615L215.79 933.385C208.497 924.029 202.055 912.99 196.67 900.601L194.836 901.398ZM215.001 933C214.822 933 214.688 933.048 214.644 933.065C214.584 933.087 214.537 933.111 214.511 933.125C214.457 933.154 214.413 933.183 214.388 933.2C214.335 933.237 214.28 933.279 214.233 933.316C214.135 933.393 214.004 933.501 213.851 933.628C213.539 933.888 213.105 934.255 212.545 934.713C211.428 935.629 209.828 936.901 207.83 938.334C203.832 941.202 198.262 944.698 191.832 947.245C185.401 949.793 178.156 951.374 170.782 950.473C163.431 949.574 155.88 946.2 148.817 938.713L147.362 940.086C154.735 947.9 162.709 951.501 170.539 952.458C178.347 953.413 185.939 951.731 192.569 949.104C199.201 946.477 204.917 942.885 208.996 939.959C211.038 938.495 212.674 937.194 213.813 936.26C214.381 935.794 214.829 935.417 215.132 935.165C215.287 935.036 215.396 934.945 215.469 934.888C215.507 934.858 215.521 934.849 215.518 934.851C215.516 934.852 215.51 934.856 215.502 934.861C215.494 934.866 215.478 934.876 215.457 934.887C215.438 934.897 215.399 934.918 215.345 934.938C215.307 934.952 215.177 935 215.001 935V933ZM148.089 939.4C147.13 939.683 147.13 939.684 147.131 939.685C147.131 939.685 147.131 939.686 147.131 939.686C147.132 939.688 147.132 939.69 147.133 939.692C147.134 939.697 147.136 939.703 147.139 939.711C147.143 939.727 147.15 939.75 147.16 939.779C147.178 939.838 147.205 939.923 147.241 940.032C147.313 940.25 147.42 940.566 147.567 940.965C147.86 941.763 148.307 942.895 148.932 944.245C150.179 946.941 152.139 950.523 154.988 954.053C160.697 961.127 170.014 968.025 184.268 967.098L184.139 965.102C170.711 965.975 161.971 959.522 156.544 952.797C153.824 949.427 151.946 945.996 150.747 943.405C150.148 942.111 149.721 941.03 149.444 940.276C149.306 939.9 149.206 939.605 149.141 939.407C149.108 939.308 149.084 939.233 149.069 939.184C149.061 939.159 149.056 939.141 149.052 939.13C149.051 939.124 149.049 939.12 149.049 939.118C149.048 939.117 149.048 939.116 149.048 939.116C149.048 939.115 149.048 939.116 149.048 939.115C149.048 939.116 149.048 939.116 148.089 939.4ZM184.203 967.1H185.853V965.1H184.203V967.1ZM186.012 967.087C201.642 964.581 213.039 968.744 220.526 973.506C224.276 975.891 227.053 978.432 228.888 980.371C229.805 981.341 230.486 982.159 230.934 982.73C231.158 983.015 231.324 983.239 231.433 983.389C231.487 983.464 231.527 983.521 231.552 983.557C231.565 983.576 231.574 983.589 231.58 983.597C231.583 983.601 231.585 983.604 231.585 983.605C231.586 983.606 231.586 983.607 231.586 983.607C231.586 983.607 231.586 983.607 231.586 983.607C231.586 983.606 231.586 983.606 232.417 983.05C233.248 982.493 233.248 982.493 233.247 982.492C233.247 982.492 233.246 982.491 233.246 982.491C233.245 982.489 233.244 982.488 233.243 982.486C233.24 982.482 233.237 982.477 233.232 982.47C233.223 982.457 233.211 982.439 233.195 982.416C233.162 982.369 233.115 982.303 233.054 982.217C232.93 982.047 232.748 981.802 232.507 981.495C232.024 980.88 231.304 980.015 230.34 978.997C228.415 976.961 225.513 974.308 221.599 971.818C213.756 966.83 201.871 962.519 185.695 965.112L186.012 967.087ZM233.386 982.802C231.569 975.696 228.635 969.452 224.845 964.713L223.283 965.962C226.86 970.435 229.686 976.406 231.448 983.297L233.386 982.802ZM224.845 964.713C221.055 959.973 216.511 956.869 211.637 955.822L211.217 957.777C215.535 958.705 219.706 961.488 223.283 965.962L224.845 964.713ZM211.946 957.654C215.167 955.697 218.493 953.58 222.008 951.007L220.827 949.393C217.376 951.919 214.103 954.003 210.907 955.945L211.946 957.654ZM221.11 951.151C230.034 954.035 238.129 962.321 243.697 974.612L245.519 973.787C239.814 961.194 231.372 952.365 221.725 949.248L221.11 951.151ZM244.425 975.183L291.997 984.033L292.362 982.067L244.791 973.217L244.425 975.183ZM291.982 984.03C305.049 986.657 318.266 986.657 331.332 984.03L330.938 982.069C318.132 984.644 305.183 984.644 292.377 982.069L291.982 984.03ZM331.318 984.033L378.89 975.183L378.524 973.217L330.952 982.067L331.318 984.033ZM379.617 974.613C385.159 962.414 393.178 954.137 402.034 951.147L401.394 949.252C391.833 952.48 383.474 961.288 377.796 973.786L379.617 974.613ZM401.123 951.007C404.638 953.58 407.965 955.697 411.185 957.654L412.224 955.945C409.029 954.003 405.755 951.919 402.304 949.393L401.123 951.007ZM411.491 955.823C406.613 956.889 402.063 959.996 398.26 964.731L399.82 965.983C403.41 961.513 407.589 958.722 411.918 957.777L411.491 955.823ZM398.26 964.731C394.458 969.465 391.503 975.698 389.655 982.798L391.591 983.302C393.383 976.416 396.229 970.454 399.82 965.983L398.26 964.731ZM390.623 983.05C391.452 983.608 391.452 983.609 391.452 983.609C391.452 983.609 391.452 983.609 391.452 983.609C391.452 983.609 391.452 983.609 391.453 983.608C391.454 983.606 391.455 983.604 391.458 983.599C391.464 983.591 391.473 983.578 391.486 983.56C391.512 983.523 391.552 983.466 391.606 983.391C391.715 983.241 391.882 983.017 392.108 982.732C392.559 982.16 393.243 981.342 394.165 980.373C396.008 978.433 398.796 975.892 402.559 973.507C410.069 968.744 421.489 964.581 437.12 967.087L437.436 965.112C421.261 962.519 409.353 966.83 401.488 971.818C397.562 974.307 394.65 976.96 392.715 978.995C391.747 980.013 391.023 980.878 390.538 981.493C390.295 981.8 390.112 982.045 389.989 982.215C389.927 982.3 389.879 982.367 389.847 982.414C389.831 982.437 389.818 982.455 389.809 982.468C389.805 982.474 389.801 982.48 389.798 982.484C389.797 982.485 389.796 982.487 389.795 982.488C389.795 982.489 389.794 982.49 389.794 982.49C389.794 982.491 389.793 982.491 390.623 983.05ZM437.278 967.1H438.928V965.1H437.278V967.1ZM438.863 967.098C453.027 968.025 462.344 961.126 468.074 954.054C470.934 950.525 472.91 946.944 474.172 944.249C474.803 942.899 475.258 941.768 475.555 940.97C475.704 940.571 475.814 940.255 475.887 940.037C475.923 939.928 475.951 939.843 475.969 939.785C475.979 939.755 475.986 939.733 475.991 939.717C475.993 939.709 475.995 939.702 475.997 939.698C475.997 939.695 475.998 939.694 475.998 939.692C475.999 939.691 475.999 939.691 475.999 939.69C475.999 939.69 475.999 939.689 475.042 939.4C474.085 939.11 474.085 939.11 474.085 939.11C474.085 939.11 474.085 939.11 474.085 939.11C474.085 939.11 474.085 939.111 474.084 939.112C474.084 939.114 474.082 939.118 474.081 939.124C474.077 939.135 474.071 939.154 474.064 939.178C474.048 939.227 474.024 939.302 473.99 939.402C473.924 939.6 473.822 939.895 473.681 940.271C473.4 941.025 472.966 942.106 472.361 943.401C471.147 945.993 469.251 949.424 466.52 952.795C461.067 959.524 452.327 965.975 438.993 965.102L438.863 967.098ZM474.315 938.713C467.384 946.055 459.987 949.467 452.772 950.475C445.537 951.486 438.415 950.087 432.051 947.689C419.3 942.884 409.792 934.14 408.922 933.286L407.521 934.713C408.484 935.659 418.225 944.616 431.346 949.56C437.917 952.037 445.386 953.526 453.049 952.456C460.732 951.382 468.539 947.745 475.769 940.086L474.315 938.713Z"
      fill="url(#paint1_linear_281_2198)" mask="url(#path-1-inside-1_281_2198)" />
  </g>
  <defs>
    <filter id="filter0_ddddd_281_2198" x="-82.5789" y="0" width="643" height="1003"
      filterUnits="userSpaceOnUse" color-interpolation-filters="sRGB">
      <feFlood flood-opacity="0" result="BackgroundImageFix" />
      <feColorMatrix in="SourceAlpha" type="matrix"
        values="0 0 0 0 0 0 0 0 0 0 0 0 0 0 0 0 0 0 127 0" result="hardAlpha" />
      <feOffset dx="-5" dy="-1" />
      <feGaussianBlur stdDeviation="5" />
      <feColorMatrix type="matrix" values="0 0 0 0 0 0 0 0 0 0 0 0 0 0 0 0 0 0 0.98 0" />
      <feBlend mode="normal" in2="BackgroundImageFix" result="effect1_dropShadow_281_2198" />
      <feColorMatrix in="SourceAlpha" type="matrix"
        values="0 0 0 0 0 0 0 0 0 0 0 0 0 0 0 0 0 0 127 0" result="hardAlpha" />
      <feOffset dx="-19" dy="-4" />
      <feGaussianBlur stdDeviation="9.5" />
      <feColorMatrix type="matrix" values="0 0 0 0 0 0 0 0 0 0 0 0 0 0 0 0 0 0 0.85 0" />
      <feBlend mode="normal" in2="effect1_dropShadow_281_2198" result="effect2_dropShadow_281_2198" />
      <feColorMatrix in="SourceAlpha" type="matrix"
        values="0 0 0 0 0 0 0 0 0 0 0 0 0 0 0 0 0 0 127 0" result="hardAlpha" />
      <feOffset dx="-42" dy="-8" />
      <feGaussianBlur stdDeviation="13" />
      <feColorMatrix type="matrix" values="0 0 0 0 0 0 0 0 0 0 0 0 0 0 0 0 0 0 0.5 0" />
      <feBlend mode="normal" in2="effect2_dropShadow_281_2198" result="effect3_dropShadow_281_2198" />
      <feColorMatrix in="SourceAlpha" type="matrix"
        values="0 0 0 0 0 0 0 0 0 0 0 0 0 0 0 0 0 0 127 0" result="hardAlpha" />
      <feOffset dx="-75" dy="-14" />
      <feGaussianBlur stdDeviation="15" />
      <feColorMatrix type="matrix" values="0 0 0 0 0 0 0 0 0 0 0 0 0 0 0 0 0 0 0.15 0" />
      <feBlend mode="normal" in2="effect3_dropShadow_281_2198" result="effect4_dropShadow_281_2198" />
      <feColorMatrix in="SourceAlpha" type="matrix"
        values="0 0 0 0 0 0 0 0 0 0 0 0 0 0 0 0 0 0 127 0" result="hardAlpha" />
      <feOffset dx="-117" dy="-22" />
      <feGaussianBlur stdDeviation="16.5" />
      <feColorMatrix type="matrix" values="0 0 0 0 0 0 0 0 0 0 0 0 0 0 0 0 0 0 0.02 0" />
      <feBlend mode="normal" in2="effect4_dropShadow_281_2198" result="effect5_dropShadow_281_2198" />
      <feBlend mode="normal" in="SourceGraphic" in2="effect5_dropShadow_281_2198" result="shape" />
    </filter>
    <linearGradient id="paint0_linear_281_2198" x1="332.921" y1="1010" x2="282.258" y2="94.4999"
      gradientUnits="userSpaceOnUse">
      <stop offset="0.360063" stop-color="white" stop-opacity="0" />
      <stop offset="1" stop-color="#E0E0E0" />
    </linearGradient>
    <linearGradient id="paint1_linear_281_2198" x1="311.421" y1="55" x2="311.421" y2="985"
      gradientUnits="userSpaceOnUse">
      <stop offset="0.136131" stop-color="white" />
      <stop offset="0.681577" stop-color="white" stop-opacity="0" />
    </linearGradient>
  </defs>
</svg>