<svg width="500" height="500" viewBox="0 0 115 127" fill="none" xmlns="http://www.w3.org/2000/svg">
  <path
    d="M1.85938 2.37814C1.85938 2.37814 11.0506 3.99285 1.85938 9.19662L1.85938 117.06C11.0506 122.256 1.85938 123.871 1.85938 123.871V125.861L113.763 125.861V123.886C113.763 123.886 104.571 122.272 113.763 117.076V9.15836C104.571 3.95458 113.763 2.33988 113.763 2.33988V0.365501L1.85938 0.365501L1.85938 2.37814Z"
  />
  <path
    d="M84.3751 0.7864C74.9297 1.24088 65.4025 1.48122 55.8593 1.50574H59.8575C50.2958 1.46671 40.7532 1.21102 31.2957 0.740486L84.3751 0.7864ZM112.615 0.7864V2.17152C111.505 2.45998 110.585 2.82154 109.913 3.23366C109.241 3.64577 108.831 4.09959 108.709 4.5668C108.371 4.62473 108.088 4.71251 107.89 4.8205C107.693 4.92849 107.588 5.05253 107.588 5.179C107.588 5.30548 107.693 5.4295 107.89 5.5375C108.088 5.64549 108.371 5.73328 108.709 5.79121C109.286 7.03312 110.598 8.22446 112.569 9.2961V116.968C110.598 118.04 109.286 119.231 108.709 120.473C108.371 120.531 108.088 120.619 107.89 120.727C107.693 120.835 107.588 120.959 107.588 121.085C107.588 121.212 107.693 121.336 107.89 121.444C108.088 121.552 108.371 121.64 108.709 121.698C108.834 122.165 109.245 122.618 109.917 123.03C110.588 123.442 111.507 123.804 112.615 124.093V125.478L91.9349 125.478C80.0183 124.785 67.9551 124.409 55.8593 124.353H59.8575C47.731 124.407 35.6368 124.783 23.69 125.478H3.00972V124.093C4.12223 123.805 5.04503 123.443 5.72093 123.031C6.39682 122.619 6.81141 122.165 6.93897 121.698C7.27654 121.64 7.55968 121.552 7.75735 121.444C7.95502 121.336 8.05959 121.212 8.05959 121.085C8.05959 120.959 7.95502 120.835 7.75735 120.727C7.55968 120.619 7.27654 120.531 6.93897 120.473C6.34058 119.23 5.00487 118.038 3.00972 116.968L3.00972 9.2961C4.98066 8.22446 6.29282 7.03312 6.87004 5.79121C7.2076 5.73328 7.49074 5.64549 7.68842 5.5375C7.88609 5.4295 7.99065 5.30548 7.99065 5.179C7.99065 5.05253 7.88609 4.92849 7.68842 4.8205C7.49074 4.71251 7.2076 4.62473 6.87004 4.5668C6.75363 4.10076 6.3509 3.64767 5.68684 3.23563C5.02278 2.82359 4.11156 2.4614 3.00972 2.17152V0.7864H23.69C35.6217 1.4803 47.7004 1.85648 59.8115 1.91133H55.8593C67.9704 1.85648 80.0492 1.4803 91.9808 0.7864L112.615 0.7864ZM31.2498 125.478C40.7072 125.008 50.2498 124.752 59.8115 124.713H55.8593C65.4056 124.753 74.9328 125.008 84.3751 125.478H31.2498ZM0.711914 2.60007L1.30934 2.71486C2.25715 2.92751 3.04888 3.20856 3.6257 3.53713C4.20253 3.86569 4.54961 4.23332 4.64117 4.61271C4.38009 4.67588 4.16762 4.75874 4.02112 4.8545C3.87462 4.95026 3.79825 5.05622 3.79825 5.1637C3.79825 5.27117 3.87462 5.37713 4.02112 5.47289C4.16762 5.56865 4.38009 5.6515 4.64117 5.71468C4.04863 6.88118 2.76782 7.99699 0.872761 8.99765L0.711914 9.08949L0.711914 117.175L0.872761 117.267C2.74359 118.269 4.00085 119.385 4.57223 120.55C4.31503 120.615 4.10766 120.699 3.96709 120.796C3.82652 120.893 3.75674 120.999 3.76347 121.107C3.77019 121.214 3.85322 121.32 4.00577 121.414C4.15833 121.509 4.37606 121.59 4.64117 121.652C4.54583 122.03 4.19955 122.396 3.62735 122.725C3.05514 123.053 2.27127 123.335 1.33232 123.55L0.711914 123.657L0.711914 126.243L114.913 126.243V123.657L114.316 123.55C113.368 123.337 112.579 123.056 112.005 122.728C111.432 122.399 111.091 122.031 111.007 121.652C111.268 121.587 111.481 121.503 111.629 121.406C111.776 121.309 111.854 121.202 111.857 121.093C111.849 120.987 111.768 120.883 111.621 120.789C111.473 120.694 111.263 120.613 111.007 120.55C111.578 119.385 112.835 118.269 114.706 117.267L114.867 117.175V9.08949L114.706 8.99765C112.835 7.99523 111.578 6.87952 111.007 5.71468C111.255 5.65014 111.456 5.56774 111.595 5.47366C111.735 5.37958 111.808 5.27623 111.811 5.17134C111.808 5.06269 111.73 4.95573 111.583 4.85881C111.435 4.76189 111.222 4.67766 110.961 4.61271C111.045 4.23357 111.386 3.86573 111.959 3.53696C112.533 3.2082 113.322 2.92709 114.27 2.71486L114.867 2.60773V0.0211411L0.711914 0.0211411L0.711914 2.60007Z"
    fill="#231F20" />
</svg>
  