<svg width="1280" height="136" viewBox="0 0 1280 136" fill="none" xmlns="http://www.w3.org/2000/svg">
<path d="M1279.59 55.4778C1279.59 67.223 1271.88 77.1348 1258.16 77.1348C1244.47 77.1348 1236.76 67.223 1236.76 55.4778C1236.76 43.7613 1244.47 33.8781 1258.16 33.8781C1271.88 33.9068 1279.59 43.7613 1279.59 55.4778ZM1258.16 72.6946C1268.53 72.6946 1274.4 65.1032 1274.4 55.4778C1274.4 45.8811 1268.56 38.3184 1258.16 38.3184C1247.85 38.3184 1242 45.9098 1241.95 55.4778C1241.98 65.1318 1247.82 72.6946 1258.16 72.6946ZM1263.37 58.5144C1271.4 56.7096 1269.73 44.4488 1259.99 44.4488H1249.48V66.4782H1255.3V59.6603H1257.33L1262.57 66.5069H1268.82V65.2464L1263.37 58.5144ZM1259.99 49.6912C1263.43 49.6912 1263.43 54.733 1259.99 54.733H1255.32V49.6912H1259.99ZM731.116 109.047C731.116 119.16 721.061 127.038 709.66 125.433C712.553 128.155 719.6 129.988 723.353 128.298C721.204 132.165 710.92 137.666 701.18 135.087C692.071 132.652 688.089 123.972 687.86 118.444C683.563 122.741 684.737 129.759 687.802 132.509C684.25 131.593 678.893 127.897 678.005 121.28C677.232 115.608 680.411 109.105 674.482 103.891C670.929 100.769 665.544 96.3282 662.049 93.5781C654.715 87.8488 657.494 83.6377 655.861 80.6011C654.601 78.2521 651.535 76.963 649.673 74.8145C647.811 72.6659 647.897 69.4861 648.929 67.6527C648.613 70.2023 650.447 72.1217 652.882 72.9238C655.575 73.8118 657.866 73.067 660.158 74.4134C662.937 76.0176 661.648 80.3433 663.653 81.8616C665.458 83.208 669.955 81.4032 673.794 84.4971C677.661 87.591 686.284 94.7813 690.008 97.8465C696.683 103.347 703.587 97.0731 701.295 90.7707C708.084 94.7813 708.829 106.04 703.186 109.964C708.514 111.167 718.111 108.79 718.111 101.084C718.111 96.3569 713.756 93.0339 710.662 92.5182C721.577 91.4869 731.116 99.1643 731.116 109.047ZM616.386 50.2928C617.045 47.6859 611.859 43.217 609.94 42.3576C617.045 42.0711 620.597 43.4175 620.597 43.4175C618.735 40.6674 618.133 36.485 619.193 33.1619C623.089 42.4722 636.954 43.9618 640.392 51.6965C639.905 48.3448 636.754 44.6207 633.115 42.4435C631.139 37.373 632.628 28.0342 635.006 25.4559C634.175 38.8913 653.34 46.5687 657.322 56.3372C654.973 47.9724 646.064 42.7013 641.795 37.6881C640.392 34.3651 641.48 28.7503 642.999 26.831C642.54 35.8261 652.252 42.8446 657.465 47.8578C663.567 53.7877 665.315 59.0014 664.484 63.2984C665.83 63.6422 667.664 64.9599 667.348 67.1657C669.296 66.7074 671.302 64.4729 671.76 63.0979C672.705 69.7726 668.781 76.8484 664.398 78.9396C664.398 78.9396 665.601 75.7598 663.567 73.3248C661.59 70.9185 655.976 70.8898 654.085 71.0331C654.085 71.0331 656.434 67.5668 655.489 65.8193C654.343 63.6708 643.371 64.6162 638.444 66.3923C640.105 66.2204 644.087 66.6501 645.462 67.223C644.689 68.3689 642.684 73.2102 644.116 74.6712C645.462 75.989 647.21 73.6972 647.21 73.6972C647.21 73.6972 645.491 78.9969 646.723 80.2287C647.955 81.4319 650.59 80.5725 650.59 80.5725C648.957 84.7263 642.569 87.591 638.1 87.591C639.704 87.0753 642.311 84.2393 642.712 82.5491C641.538 83.122 638.501 83.4658 637.298 83.2653C638.759 82.6923 641.652 78.9396 640.736 74.7858C639.418 68.684 630.91 67.9106 626.641 70.8612C628.016 66.7647 632.17 62.926 635.407 61.6656C633.516 61.0067 631.282 60.4337 628.904 60.004C631.626 57.7696 638.472 55.9648 641.939 56.1367C636.639 54.7617 626.899 56.4518 622.459 61.7229C623.862 61.7229 627.558 62.4104 628.962 62.8687C622.831 63.986 614.524 69.658 612.089 72.3508C612.748 68.8273 613.721 65.8193 612.891 63.6995C611.716 60.7202 608.078 59.4597 600.83 60.9494C605.7 55.9935 615.698 52.9569 616.386 50.2928ZM658.353 63.2125L657.694 61.0353C657.637 60.8061 655.947 55.5065 650.275 53.4439L647.181 52.298L648.069 55.4778C648.843 58.1993 650.275 63.2125 656.062 63.2125H658.353ZM439.635 70.3169C439.635 91.2291 422.991 106.985 400.904 106.985C378.674 106.985 362.546 91.7734 362.546 70.7753C362.546 49.462 378.588 34.0213 400.704 34.0213C422.876 34.0213 439.635 49.6339 439.635 70.3169ZM419.238 70.3169C419.238 58.7149 411.905 51.2381 400.532 51.2381C389.617 51.2381 382.857 58.7436 382.857 70.8039C382.857 82.4632 390.018 89.9686 401.105 89.9686C411.761 89.9686 419.238 81.8902 419.238 70.3169ZM78.14 70.2883C78.14 78.5099 75.4472 86.617 70.7492 92.4896C68.6866 95.0964 66.137 97.4168 63.1577 99.4508C56.1393 104.149 49.6651 105.896 39.2663 105.896H2.25454L3.83012 104.98C3.83012 104.951 8.41361 102.287 10.5335 100.998C12.5961 99.7659 13.4268 98.5627 13.4268 94.1797V53.272C13.4268 48.7745 12.195 47.5427 10.4475 46.2822C1.30919 39.6075 0.535729 31.9588 0.507082 31.6437L0.421143 30.6124L1.28055 31.1853C1.3092 31.2139 4.34576 33.1619 7.72609 33.9354C11.6221 34.8235 16.979 34.9953 28.2372 34.9953H42.4747V35.0526C49.5791 35.3391 54.7642 36.6282 59.892 39.321C71.3221 45.3082 78.14 56.8815 78.14 70.2883ZM57.5716 70.4601C57.5716 58.8582 51.5844 52.1834 41.157 52.1834H33.1931V88.6222H41.157C51.5844 88.6509 57.5716 82.0048 57.5716 70.4601ZM548.98 60.491L546.115 59.8035L545.857 59.7462C539.125 58.142 534.714 56.8815 534.714 54.0168C534.714 53.0429 534.971 52.2694 535.573 51.7251C536.747 50.5219 539.24 49.8631 542.534 49.8631C543.078 49.8631 543.651 49.8917 544.224 49.9203H544.425C544.539 49.9203 544.654 49.949 544.769 49.949C550.87 50.4933 558.118 53.1288 565.595 58.0847L564.449 37.1725L563.074 36.7141L562.816 36.6282C562.701 36.5709 561.928 36.3131 559.579 35.7974C558.175 35.4823 550.985 33.9354 546.659 33.6203C545.256 33.5057 543.88 33.4484 542.563 33.4484C526.807 33.4484 517.554 40.9252 516.58 54.5325C516.093 61.3218 519.416 67.9679 525.088 71.4055C530.13 74.4707 537.664 76.7911 543.164 78.4813L544.425 78.8537C547.862 79.9136 551.816 82.0335 551.271 86.1586C550.985 88.3071 550.154 90.6275 543.68 90.6275C542.735 90.6275 541.703 90.5702 540.586 90.4843C536.117 90.0832 530.904 87.5337 525.117 82.9215C524.888 82.721 524.687 82.5778 524.573 82.4918L520.992 79.7704L517.325 76.9916L518.786 103.49L520.19 103.948L520.419 104.034C520.476 104.034 521.221 104.292 523.627 104.836C526.005 105.352 533.826 106.727 537.807 107.014C539.096 107.099 540.414 107.157 541.703 107.157C558.949 107.157 570.293 98.5913 570.637 85.3279C571.009 72.58 563.704 64.2151 548.98 60.491ZM342.894 88.6509H326.823V78.2807H341.863C343.84 78.2521 345.959 78.2234 347.163 78.825C348.566 79.5125 349.569 80.9449 349.569 80.9735L350.285 82.0621L350.256 59.3738L349.655 59.7176C349.626 59.7176 348.681 60.3192 347.879 60.6629C347.163 60.9494 346.676 61.0926 343.439 61.0926H326.795V52.2407H343.467C347.736 52.2407 348.681 52.6132 351.116 54.332L355.241 57.4831L353.064 35.024H296.372L297.89 35.9407C297.919 35.9693 301.786 38.3184 304.106 39.8939C306.255 41.3263 307.057 42.3003 307.057 46.8838V94.1224C307.057 98.7632 306.341 99.594 304.164 100.94C301.987 102.287 297.518 104.865 297.489 104.894L295.885 105.839H354.668L359.939 82.2053C359.939 82.2053 355.212 85.6143 353.866 86.4737C351.259 88.0779 349.225 88.6509 342.894 88.6509ZM232.661 35.0526H192.527L194.045 35.9693C194.074 35.998 197.941 38.347 200.262 39.9226C202.41 41.3549 203.212 42.3003 203.212 46.9124V64.0719L173.591 35.0526H127.012C125.637 35.0526 124.147 35.912 124.09 35.9407L123.631 36.2271L123.946 36.6855C123.946 36.6855 124.978 38.0892 125.579 39.0345C126.038 39.7507 126.295 40.2377 126.381 42.1571V78.338L126.41 78.6245C126.295 86.2446 122.915 90.1119 115.753 90.1119C108.477 90.1119 104.782 86.1013 104.782 78.2807L104.753 42.1857C104.81 40.295 105.068 39.808 105.526 39.0632C106.128 38.1178 107.159 36.7141 107.188 36.7141L107.503 36.2558L107.016 35.9693C106.959 35.9407 105.469 35.0813 104.094 35.0813H74.3014L75.8196 35.998C75.8483 36.0266 79.687 38.3757 82.0647 39.9512C84.2132 41.3549 85.0153 42.3289 85.0153 46.9411V76.1609C85.0153 82.6064 85.7887 87.7628 87.2497 91.1145C88.3097 93.4922 89.9425 95.784 92.2629 98.133C98.3361 104.12 106.013 107.042 115.696 107.042C129.16 107.042 139.702 100.969 143.913 90.7994C145.546 86.8461 146.09 83.3226 146.09 76.7338V46.9411C146.09 42.3289 146.921 41.3836 149.041 39.9512C150.33 39.1205 152.02 38.0605 153.309 37.2298C154.513 38.0319 156.059 39.0632 157.148 39.8653C159.211 41.3549 160.185 42.8732 160.185 47.4854V94.1797C160.185 98.7632 159.354 99.7372 157.291 100.998C155.028 102.373 150.617 104.922 150.617 104.951L149.012 105.896H189.261L187.628 104.951C187.571 104.922 183.102 102.344 180.954 100.998C178.948 99.7372 178.06 98.6773 178.06 94.1797V66.0199L221.088 108.159V46.8838C221.088 42.3289 221.861 41.3836 224.038 39.8939C226.416 38.2897 230.799 35.998 230.856 35.9693L232.661 35.0526ZM519.703 35.0526H479.568L481.058 35.9693C481.115 35.998 484.954 38.347 487.274 39.9226C489.423 41.3549 490.225 42.3003 490.225 46.9124V64.0719L460.604 35.0813H437.028L438.431 35.998C438.46 36.0266 442.07 38.3757 444.161 39.8939C446.223 41.3836 447.197 42.9019 447.197 47.514V94.2084C447.197 98.7919 446.367 99.7659 444.304 101.026C442.041 102.401 437.658 104.951 437.601 104.98L435.968 105.925H476.245L474.612 104.98C474.555 104.951 470.115 102.373 467.938 101.026C465.904 99.7659 465.044 98.7059 465.044 94.2084V66.0485L508.072 108.188V46.8838C508.072 42.3289 508.817 41.3836 511.023 39.8939C513.4 38.2897 517.783 35.998 517.841 35.9693L519.703 35.0526ZM295.999 101.742C295.999 101.714 294.939 100.31 294.338 99.3648C293.794 98.534 293.478 97.8179 293.478 94.8959V75.7884C293.478 72.8951 293.736 72.3508 294.281 71.4914C294.882 70.5461 295.913 69.1424 295.913 69.1137L296.257 68.6554L295.741 68.3689C295.684 68.3403 294.366 67.6527 292.877 67.4809V67.5095C292.476 67.4809 262.712 67.4809 262.712 67.4809L264.23 68.3976C264.23 68.3976 268.67 71.119 270.647 72.3508C272.595 73.5826 273.598 74.9863 273.598 79.1688V89.5676C271.363 90.2838 269.043 90.5989 266.293 90.5989C254.146 90.5989 247.987 84.0387 247.987 71.119C247.987 58.8009 254.748 51.7251 266.493 51.7251C273.855 51.7251 281.59 53.4439 291.043 60.5483L290.986 60.0327L288.809 39.5502L288.666 38.0319L287.176 37.6881L285.744 37.373C279.441 35.912 276.978 35.511 273.225 35.0526C271.019 34.7948 269.816 34.6516 267.037 34.6516H265.834C243.662 34.6516 227.562 50.1782 227.562 71.5201C227.562 92.5469 243.747 107.844 266.035 107.844C269.931 107.844 277.436 107.128 282.163 106.154C283.051 105.954 283.567 105.839 284.283 105.667C284.426 105.61 284.598 105.581 284.741 105.553C287.405 104.922 290.127 104.235 292.848 103.404L296.314 102.315L295.999 101.742ZM823.216 70.2883C823.216 78.5099 820.523 86.617 815.825 92.4896C813.762 95.0964 811.213 97.4168 808.234 99.4508C801.215 104.149 794.741 105.896 784.342 105.896H747.33L748.906 104.98C748.906 104.951 753.49 102.287 755.609 100.998C757.672 99.7659 758.503 98.5627 758.503 94.1797V53.272C758.503 48.7745 757.271 47.5427 755.495 46.2822C746.356 39.6075 745.612 31.9588 745.583 31.6437L745.497 30.6124L746.356 31.1853C746.385 31.2139 749.422 33.1619 752.773 33.9354C756.669 34.8235 762.026 34.9953 773.284 34.9953H787.522V35.0526C794.626 35.3391 799.811 36.6282 804.939 39.321C816.369 45.3082 823.216 56.8815 823.216 70.2883ZM802.619 70.4601C802.619 58.8582 796.632 52.1834 786.204 52.1834H778.24V88.6222H786.204C796.632 88.6509 802.619 82.0048 802.619 70.4601ZM1213.67 60.491L1210.81 59.8035L1210.55 59.7462C1203.82 58.142 1199.41 56.8815 1199.41 54.0168C1199.41 53.0429 1199.69 52.2694 1200.27 51.6965C1201.47 50.4933 1203.9 49.8344 1207.23 49.8344C1207.77 49.8344 1208.34 49.8631 1208.92 49.8917H1209.15C1209.26 49.9203 1209.38 49.9203 1209.49 49.949C1215.59 50.4933 1222.87 53.1288 1230.32 58.0847L1229.14 37.1725L1227.77 36.7141L1227.51 36.6282C1227.39 36.5996 1226.62 36.3131 1224.3 35.8261C1222.9 35.511 1215.71 33.964 1211.38 33.6489C1209.98 33.5343 1208.6 33.5057 1207.28 33.5057C1191.5 33.5057 1182.28 40.9825 1181.3 54.5898C1180.81 61.3791 1184.17 68.0252 1189.78 71.4628C1194.82 74.528 1202.36 76.8484 1207.86 78.5386L1209.12 78.911C1212.56 79.9709 1216.54 82.0908 1215.99 86.2159C1215.71 88.3644 1214.88 90.6848 1208.4 90.6848C1207.46 90.6848 1206.45 90.6275 1205.31 90.5416C1200.84 90.1405 1195.62 87.591 1189.84 82.9788C1189.61 82.7783 1189.41 82.635 1189.29 82.5491L1185.71 79.8277L1182.02 77.0489L1183.48 103.547L1184.85 104.006L1185.11 104.092C1185.17 104.092 1185.94 104.349 1188.32 104.894C1190.7 105.438 1198.52 106.784 1202.53 107.071C1203.82 107.157 1205.14 107.214 1206.42 107.214C1223.64 107.214 1235.01 98.6486 1235.36 85.3851C1235.7 72.58 1228.37 64.2151 1213.67 60.491ZM1104.3 70.3742C1104.3 91.2864 1087.65 107.042 1065.57 107.042C1043.34 107.042 1027.21 91.802 1027.21 70.8325C1027.21 49.5193 1043.25 34.05 1065.37 34.05C1087.57 34.0786 1104.3 49.6912 1104.3 70.3742ZM1083.93 70.3742C1083.93 58.7722 1076.6 51.2954 1065.2 51.2954C1054.28 51.2954 1047.49 58.7722 1047.49 70.8325C1047.49 82.4918 1054.68 90.0259 1065.77 90.0259C1076.45 90.0259 1083.93 81.9475 1083.93 70.3742ZM958.973 101.141L964.96 105.839H927.92C927.92 105.839 931.071 102.831 932.475 101.341C933.707 100.052 934.337 98.7632 933.42 96.5861C933.22 96.0418 932.79 94.8959 932.274 93.4349H906.607C906.091 94.8386 905.662 95.9845 905.404 96.5861C904.372 99.1356 904.602 99.8518 906.034 101.227C907.61 102.745 911.477 105.839 911.477 105.839H872.632L854.813 84.3539L854.785 84.2966L854.756 84.2393C852.808 81.5751 851.347 80.0855 850.001 79.3693C849.649 79.2211 849.285 79.106 848.912 79.0255V94.1224C848.912 98.5627 849.743 99.3648 851.863 100.969C854.011 102.602 860.285 105.839 860.285 105.839H818.862C818.862 105.839 825.193 102.287 827.169 100.969C829.003 99.7372 830.091 98.6486 830.091 94.1511V46.9984C830.091 42.6154 829.146 41.269 827.141 40.0372C825.078 38.7481 820.896 36.1126 820.896 36.1126L819.435 35.1672H853.152C859.626 35.2532 862.204 35.4537 865.814 36.5423C874.494 39.0345 879.851 46.2535 879.851 55.3632C879.851 59.603 878.648 63.5276 876.413 66.736C874.723 69.2283 872.488 71.2909 869.91 72.7519C877.33 82.6637 883.174 90.0259 886.783 93.9792C887.012 93.5495 908.24 42.3576 908.24 42.3576C908.297 41.9852 908.354 41.6701 908.354 41.3836C908.354 41.0112 908.354 40.5815 907.294 39.6361L902.281 35.0813H930.183C930.183 35.0813 953.416 94.0079 953.588 94.3803H953.559C954.218 95.8412 954.39 96.1277 955.049 97.159C955.994 98.5913 956.338 99.0783 958.973 101.141ZM860.457 55.2487C860.457 51.6105 858.108 49.2042 851.261 49.1755L848.883 49.2042V65.7048C849.886 65.7334 850.86 65.7334 851.233 65.7334C855.73 65.7048 860.457 64.7021 860.457 55.2487ZM926.287 76.6479L919.899 59.2306L912.966 76.6479H926.287ZM1184.4 35.0526H1144.26L1145.78 35.9693C1145.81 35.998 1149.65 38.347 1152.02 39.8939C1154.17 41.3263 1154.98 42.3003 1154.98 46.8838V64.0432L1125.35 35.0526H1101.78L1103.18 35.9693C1103.21 35.998 1106.82 38.347 1108.91 39.8653C1110.97 41.3549 1111.95 42.8732 1111.95 47.4854V94.1797C1111.95 98.7632 1111.12 99.7372 1109.08 100.998C1106.82 102.373 1102.41 104.922 1102.38 104.951L1100.78 105.896H1141.02L1139.42 104.951C1139.36 104.922 1134.89 102.344 1132.75 100.998C1130.74 99.7372 1129.85 98.6773 1129.85 94.1797V66.0199L1172.88 108.159V46.8838C1172.88 42.3289 1173.65 41.3836 1175.83 39.8939C1178.21 38.2897 1182.59 35.998 1182.65 35.9693L1184.4 35.0526ZM1021.54 98.7346C1020.99 97.9038 1020.68 97.159 1020.68 94.2657V75.1582C1020.68 72.2649 1020.94 71.7206 1021.48 70.8612C1022.08 69.9158 1023.11 68.5122 1023.11 68.5122L1023.46 68.0538L1022.94 67.7673C1022.88 67.7387 1021.57 67.0512 1020.08 66.8793V66.9079C1019.68 66.8793 989.912 66.8793 989.912 66.8793L991.43 67.8246C991.43 67.8246 995.87 70.5174 997.876 71.7779C999.824 72.9811 1000.8 74.3848 1000.8 78.5958V88.9946C998.563 89.7108 996.243 90.0259 993.493 90.0259C981.347 90.0259 975.187 83.4658 975.187 70.5174C975.187 58.1993 981.919 51.1235 993.693 51.1235C1001.06 51.1235 1008.82 52.8137 1018.24 59.9181L1018.19 59.4025L1016.01 38.92L1015.84 37.4017L1014.38 37.0579L1012.94 36.7141C1006.64 35.2532 1004.18 34.8807 1000.43 34.3938C998.219 34.1359 997.016 33.9927 994.238 33.9927H993.034C970.862 33.9927 954.762 49.4906 954.762 70.8612C954.762 91.888 970.948 107.185 993.235 107.185C997.131 107.185 1004.64 106.469 1009.36 105.467C1010.25 105.266 1010.77 105.151 1011.48 104.98L1011.94 104.894C1014.61 104.263 1017.33 103.576 1020.05 102.745L1023.51 101.657L1023.11 101.084C1023.17 101.084 1022.14 99.6799 1021.54 98.7346ZM707.54 56.9675C692.271 57.7123 679.208 70.632 672.448 79.799C673.651 80.2001 674.883 80.773 676.086 81.7183C677.489 82.8642 679.581 84.5544 681.786 86.3878C683.591 82.3772 687.688 74.2988 693.933 67.1371C699.633 60.6056 709.603 59.9754 714.816 63.9573C718.168 60.9207 729.77 58.0561 735.872 59.8035C732.176 55.7643 724.27 50.35 715.532 50.35C708.342 50.35 704.274 53.8736 703.243 52.298C701.925 50.2641 708.113 47.2562 708.113 47.2562C699.605 47.5999 693.446 57.5977 690.867 56.3659C689.321 55.6211 693.159 50.7798 693.159 50.7798C685.396 55.306 678.864 64.8454 677.518 70.6893C684.622 61.9234 698.516 55.6497 707.54 56.9675ZM661.132 97.4168C657.207 104.063 649.014 112.628 640.65 112.628C625.266 112.628 617.532 90.8853 634.691 73.0384C633.717 72.7232 632.772 72.6946 632.457 72.6946C630.996 72.6946 629.592 73.067 628.647 73.7259L621.055 80.2574L623.204 69.6294C623.347 69.257 623.461 68.9132 623.633 68.5408C619.823 70.4888 616.128 73.1529 614.696 74.6999L607.82 82.1767L608.508 71.606L608.966 69.2856C609.31 67.6527 609.74 65.5902 609.482 64.9313C609.38 64.7288 609.233 64.5524 609.052 64.4156C605.872 66.8793 597.192 74.528 596.161 85.9008C596.161 85.9008 597.851 83.5231 599.312 82.9502C600.286 82.5778 601.117 83.0648 600.2 85.9008C599.856 87.018 591.406 109.821 607.992 125.634C607.992 125.634 606.159 120.993 607.276 119.589C607.82 118.902 608.508 118.845 609.482 120.076C610.169 121.022 610.914 121.939 611.716 122.827V122.855C613.091 124.431 614.581 125.892 616.242 127.152C621.198 130.619 627.93 133.426 635.608 133.426C656.033 133.426 666.861 119.446 672.906 107.586C672.619 107.243 672.419 106.899 672.047 106.584C669.01 103.862 664.541 100.138 661.132 97.4168ZM615.211 38.834C614.925 36.5423 615.068 34.1932 615.755 32.0734L618.735 22.7631L622.487 31.7582C623.576 34.3651 625.868 36.2844 628.618 38.0319C628.389 33.7062 629.162 28.8936 630.709 25.5992C630.394 18.638 635.207 13.4243 640.965 13.4243C650.819 13.4243 653.455 25.3413 648.871 33.8781C650.991 37.0866 654.228 40.0372 657.093 42.6154C658.124 43.5321 659.069 44.4202 659.929 45.2223C660.187 45.5087 660.33 45.7379 660.616 45.9957C664.885 40.2091 668.036 32.102 668.036 26.0002C668.036 13.3383 659.814 1.59311 642.684 0.647766C631.826 0.0748289 624.493 3.42651 619.021 8.984C616.558 11.5049 611.057 17.8932 612.089 29.4378C612.49 33.8208 613.951 36.8574 615.211 38.834Z" fill="#DF0000"/>
</svg>
