<svg width="500" height="500" viewBox="0 0 116 127" fill="none" xmlns="http://www.w3.org/2000/svg">
  <path
    d="M113.97 122.416V3.77183C108.133 3.77183 104.962 0.365593 104.962 0.365593H2.06641V2.34045C2.06641 2.34045 11.2576 3.95554 2.06641 9.15292L2.06641 117.058C11.2576 122.263 2.06641 123.878 2.06641 123.878V125.861H104.962C104.962 125.861 108.133 122.416 113.97 122.416Z"
  />
  <path
    d="M3.21675 124.092C4.32926 123.804 5.25207 123.443 5.92796 123.03C6.60386 122.618 7.01844 122.164 7.146 121.697C7.48357 121.639 7.76671 121.551 7.96438 121.443C8.16205 121.335 8.26662 121.211 8.26662 121.084C8.26662 120.958 8.16205 120.834 7.96438 120.726C7.76671 120.618 7.48357 120.53 7.146 120.472C6.54761 119.228 5.21191 118.036 3.21675 116.966L3.21675 9.26773C5.1844 8.1953 6.49631 7.00389 7.07707 5.76199C7.41463 5.70403 7.69777 5.61623 7.89545 5.50821C8.09312 5.40019 8.19769 5.27614 8.19769 5.14963C8.19769 5.02312 8.09312 4.89906 7.89545 4.79104C7.69777 4.68302 7.41463 4.59522 7.07707 4.53727C6.96066 4.07113 6.55793 3.61793 5.89387 3.20579C5.22981 2.79365 4.31859 2.43137 3.21675 2.14142V0.755959H23.897C35.8287 1.45004 47.9074 1.82629 60.0186 1.88117H96.209C103.102 3.28959 112.822 5.91507 112.822 9.39021V116.844C112.822 120.311 103.034 122.967 96.209 124.353H60.0186C47.9074 124.408 35.8287 124.784 23.897 125.478H3.21675V124.092ZM90.005 0.755959C90.5334 0.840157 92.1419 1.08511 94.2789 1.52141H60.0186C50.4569 1.48235 40.9143 1.22662 31.4568 0.755959H90.005ZM112.822 4.13158V6.30545C108.778 3.62639 100.276 1.71277 95.0601 0.755959H104.251C105.125 1.52141 108.02 3.81775 112.937 4.13158M112.822 122.11C107.905 122.416 105.01 124.712 104.136 125.478H95.1291C100.345 124.506 108.916 122.607 112.891 119.928L112.822 122.11ZM94.2789 124.712C92.1419 125.118 90.5334 125.371 90.005 125.478H31.4568C40.9143 125.007 50.4569 124.752 60.0186 124.712H94.2789ZM106.067 125.975C106.871 125.103 109.881 122.837 113.971 122.837H115.12V3.42738H113.971C109.904 3.42738 106.871 1.13103 106.067 0.28904L105.814 0.0211411H0.918945L0.918945 2.60069L1.51638 2.7155C2.46418 2.92821 3.25591 3.20933 3.83274 3.53797C4.40956 3.86662 4.75664 4.23434 4.8482 4.61382C4.58713 4.67701 4.37465 4.75989 4.22815 4.85567C4.08165 4.95146 4.00528 5.05744 4.00528 5.16494C4.00528 5.27245 4.08165 5.37841 4.22815 5.4742C4.37465 5.56998 4.58713 5.65286 4.8482 5.71606C4.24403 6.87222 2.96363 7.97755 1.07979 8.96921L0.918945 9.06107L0.918945 117.173L1.07979 117.257C2.94801 118.263 4.20496 119.381 4.77926 120.548C4.52206 120.613 4.31469 120.698 4.17412 120.795C4.03355 120.891 3.96377 120.998 3.9705 121.105C3.97722 121.213 4.06026 121.318 4.21281 121.413C4.36536 121.508 4.58309 121.589 4.8482 121.651C4.75664 122.03 4.40956 122.398 3.83274 122.727C3.25591 123.055 2.46418 123.336 1.51638 123.549L0.918945 123.656L0.918945 126.243H105.814L106.067 125.975Z"
    fill="#231F20" />
</svg>
  