<svg width="166" height="147" viewBox="0 0 166 147" fill="none" xmlns="http://www.w3.org/2000/svg">
  <path
    d="M162.834 117.76C162.061 111.918 161.762 106.023 161.942 100.132C162.303 105.661 163.081 111.155 164.272 116.567C163.767 116.933 163.287 117.332 162.834 117.76ZM162.475 125.093L162.173 128.415C161.597 126.632 160.994 125.223 160.965 125.151C160.676 123.866 160.854 122.52 161.468 121.355C161.738 122.618 162.074 123.866 162.475 125.093ZM154.825 145.008H149.606C159.383 141.039 161.109 133.591 161.324 129.292C161.54 130.011 161.756 130.73 161.899 131.492L161.18 139.63C159.541 140.234 155.573 141.974 154.825 145.008ZM4.7419 139.573L4.00859 131.434C4.15238 130.744 4.35368 129.996 4.56936 129.306C4.62138 131.019 4.92664 132.715 5.47521 134.339C6.66862 137.804 9.52996 142.189 16.3166 144.95H11.0828C10.4214 141.916 6.36668 140.176 4.7419 139.573ZM4.98634 124.993C4.98634 125.122 4.31054 126.56 3.7354 128.357L3.43345 125.093C3.84702 123.854 4.18789 122.591 4.45433 121.312C5.07523 122.453 5.2641 123.781 4.98634 125.05M1.62176 116.567C2.81711 111.156 3.60059 105.662 3.96546 100.132C4.15746 106.022 3.86411 111.918 3.08837 117.76C2.63958 117.327 2.15895 116.928 1.65051 116.567M3.08837 29.1597C3.86509 35.0064 4.15845 40.9072 3.96546 46.8022C3.60153 41.2677 2.81804 35.7689 1.62176 30.3531C2.13019 29.9918 2.61082 29.5929 3.05961 29.1597M3.4047 21.8841L3.70665 18.5627C4.28179 20.3456 4.88569 21.7691 4.92882 21.841C5.21698 23.1212 5.03851 24.4623 4.42557 25.6226C4.15739 24.3578 3.81653 23.1096 3.4047 21.8841ZM11.0828 1.98424H16.3022C6.52484 5.95272 4.7419 13.4008 4.67001 17.7C4.43995 16.9667 4.23865 16.2621 4.08049 15.4857L4.81379 7.34744C6.36668 6.75792 10.4214 5.00373 11.0828 1.98424ZM161.18 7.34744L161.899 15.4857C161.756 16.1902 161.554 16.9235 161.339 17.6137C161.292 15.9001 160.987 14.2034 160.433 12.5812C159.254 9.116 156.378 4.73054 149.606 1.98424H154.825C155.573 5.00373 159.541 6.75792 161.18 7.34744ZM160.936 21.9273C160.936 21.8123 161.597 20.36 162.173 18.5627L162.475 21.8841C162.063 23.1243 161.722 24.3869 161.454 25.6657C160.836 24.5226 160.653 23.1951 160.936 21.9273ZM164.272 30.3531C163.076 35.7689 162.292 41.2677 161.928 46.8022C161.76 40.9066 162.063 35.007 162.834 29.1597C163.286 29.5895 163.766 29.9883 164.272 30.3531ZM159.958 125.424C159.958 125.424 160.217 126.042 160.548 126.862C160.818 129.286 160.553 131.74 159.771 134.051C158.032 139.112 153.804 142.822 147.492 144.893H18.3871C4.84255 140.478 4.98634 130.04 5.36018 126.919C5.70526 125.97 5.99283 125.323 6.00721 125.28C6.21836 124.305 6.21722 123.295 6.00386 122.32C5.7905 121.345 5.36992 120.428 4.77066 119.629C6.7549 108.745 5.7484 94.884 5.70526 94.2657V52.568C5.70526 51.8778 6.76927 37.9881 4.78504 27.0892C5.38848 26.2739 5.80879 25.338 6.01724 24.3454C6.22569 23.3528 6.21737 22.3269 5.99283 21.3378C5.99283 21.3378 5.71964 20.7195 5.38894 19.8999C5.13321 17.4745 5.40294 15.0225 6.17976 12.7106C7.90518 7.64938 12.1468 3.93972 18.459 1.88359H147.535C161.08 6.28342 160.936 16.7366 160.562 19.8568C160.217 20.7914 159.944 21.4384 159.93 21.4815C159.716 22.456 159.715 23.4649 159.926 24.4398C160.137 25.4148 160.555 26.333 161.152 27.1323C159.167 38.0169 160.174 51.8778 160.231 52.4961V94.1938C160.231 94.884 159.167 108.759 161.166 119.658C160.564 120.474 160.145 121.41 159.937 122.403C159.728 123.395 159.736 124.42 159.958 125.41M162.216 88.8163V63.8695C162.676 56.4933 163.769 35.7882 165.465 30.2812L165.58 29.893L165.235 29.6629C164.442 29.1478 163.713 28.5395 163.064 27.8512C163.402 25.9768 163.883 24.131 164.502 22.3299L164.574 22.1286L163.136 5.88082L162.403 5.75142C160.965 5.2913 156.651 3.45085 156.651 1.06401V0H9.22801V0.992119C9.22801 3.37896 5.10136 5.19065 3.47659 5.67952L2.84393 5.88082L1.40608 22.1286V22.3299C2.03233 24.124 2.51317 25.9656 2.84393 27.8369C2.19227 28.5208 1.46922 29.133 0.687152 29.6629L0.356445 29.893L0.471474 30.2812C2.16814 35.7738 3.23215 56.4502 3.72102 63.8407V88.8163C3.23215 96.1925 2.16814 111.132 0.471474 116.639L0.356445 117.041L0.715909 117.257C1.49995 117.779 2.22335 118.387 2.87269 119.069C2.54872 120.946 2.06775 122.793 1.43484 124.59V124.791L2.87269 141.053L3.50535 141.24C5.08699 141.744 9.25676 143.541 9.25676 145.928V146.92H156.694V145.928C156.694 143.541 160.807 141.744 162.446 141.24L163.064 141.053L164.502 124.791L164.43 124.59C163.828 122.794 163.371 120.952 163.064 119.083C163.708 118.391 164.432 117.778 165.221 117.257L165.566 117.027L165.451 116.639C163.754 111.146 162.661 96.2212 162.216 88.8306"
    fill="#231F20" />
</svg>
  