<svg width="500" height="500" viewBox="0 0 115 127" fill="none" xmlns="http://www.w3.org/2000/svg">
  <path
    d="M1.42969 3.80153L1.42969 122.417C6.04648 122.417 8.66882 125.861 8.66882 125.861L113.784 125.861V123.886C113.784 123.886 106.397 122.272 113.784 117.068V9.15836C106.397 3.96223 113.784 2.34754 113.784 2.34754V0.373161L8.66882 0.373161C8.66882 0.373161 6.04648 3.80153 1.42969 3.80153Z"
  />
  <path
    d="M112.859 2.17152C111.96 2.45796 111.215 2.8189 110.671 3.23131C110.128 3.64371 109.797 4.09854 109.701 4.5668C109.44 4.62656 109.222 4.71407 109.07 4.82032C108.917 4.92657 108.836 5.04772 108.833 5.17134C108.84 5.29937 108.929 5.42432 109.092 5.53329C109.254 5.64227 109.484 5.73131 109.757 5.79121C110.223 7.03281 111.278 8.22393 112.859 9.2961V116.968C111.275 118.04 110.221 119.231 109.757 120.473C109.484 120.533 109.254 120.622 109.092 120.731C108.929 120.84 108.84 120.965 108.833 121.093C108.836 121.217 108.917 121.338 109.07 121.444C109.222 121.55 109.44 121.638 109.701 121.698C109.801 122.166 110.132 122.62 110.676 123.032C111.219 123.444 111.963 123.806 112.859 124.093V125.478H96.2388C86.6493 124.785 76.9418 124.408 67.2083 124.353H15.7034C10.2186 122.945 2.3516 120.32 2.3516 116.846L2.3516 9.41855C2.3516 5.95191 10.2371 3.29646 15.7034 1.91133H67.2083C76.9418 1.85615 86.6493 1.47998 96.2388 0.7864H112.859V2.17152ZM20.6895 125.478C20.2648 125.394 18.9721 125.141 17.2546 124.713H67.2083C74.8868 124.752 82.5499 125.008 90.1446 125.478H20.6895ZM2.3516 122.103V119.93C5.60183 122.608 12.4347 124.506 16.6267 125.478H9.3322C8.63044 124.713 6.30358 122.417 2.3516 122.103ZM2.3516 4.15356C6.30358 3.8398 8.63044 1.58227 9.3322 0.7864H16.7191C12.527 1.75828 5.63876 3.65613 2.44394 6.33454L2.3516 4.15356ZM17.2546 1.50574C18.9721 1.10016 20.2648 0.847626 20.6895 0.740486H90.1446C82.5499 1.21098 74.8868 1.46666 67.2083 1.50574H17.2546ZM7.78095 0.266029C7.1346 1.13843 4.7154 3.40359 1.42824 3.40359H0.504883L0.504883 122.838H1.42824C4.69693 122.838 7.1346 125.134 7.78095 125.976L7.98409 126.243L114.706 126.243V123.657L114.244 123.55C113.479 123.338 112.839 123.057 112.372 122.728C111.906 122.4 111.624 122.032 111.548 121.652C111.761 121.587 111.934 121.503 112.056 121.406C112.178 121.31 112.244 121.202 112.25 121.093C112.248 120.987 112.188 120.883 112.072 120.789C111.957 120.695 111.79 120.613 111.585 120.55C112.054 119.382 113.07 118.265 114.577 117.259L114.706 117.175V9.08949L114.577 8.99765C113.068 7.99546 112.052 6.87986 111.585 5.71468C111.79 5.65172 111.957 5.56985 112.072 5.47554C112.188 5.38123 112.248 5.27708 112.25 5.17134C112.244 5.06216 112.178 4.95498 112.056 4.85811C111.934 4.76124 111.761 4.67727 111.548 4.61271C111.625 4.23452 111.903 3.86811 112.363 3.53991C112.823 3.21171 113.453 2.92991 114.207 2.71486L114.706 2.60773V0.0211411L7.98409 0.0211411L7.78095 0.266029Z"
    fill="#231F20" />
</svg>
  