<svg width="859" height="141" viewBox="0 0 859 141" fill="none" xmlns="http://www.w3.org/2000/svg">
  <g clip-path="url(#clip0_208_84)">
    <path
      d="M437.357 53.3061L465.801 51.1741L430.719 48.5569L484.402 44.5355L436.591 40.9608L502.824 36.0074L390.045 27.5815L420.352 25.3219L365.022 21.1727L315.871 24.8495L293.76 21.9643L348.005 17.9045L304.535 14.6746L274.227 16.9343L239.068 14.3044L206.194 16.7683L239.591 19.3216L202.734 21.9643L165.992 19.2705L187.325 17.6747L161.792 15.7597L80.3672 21.8494L109.232 24.0069L17.6964 30.9008L71.6094 34.935L43.1528 37.016L78.2352 39.6331L24.552 43.6674L72.3626 47.2547L6.12988 52.1699L97.1424 58.9872L55.4725 62.1022L99.4659 65.3704L110.815 64.5406L143.906 67.0173L193.057 63.3406L215.143 66.213L157.886 70.477L236.527 76.3496L253.724 75.073L222.765 72.775L266.975 69.4685L297.947 71.7537L318.233 70.2472L347.111 72.4048L428.587 66.3152L399.722 64.1831L491.258 57.3403L437.357 53.3061ZM291.449 75.0092L321.131 77.2305L350.826 74.9964L321.131 72.775L291.449 75.0092ZM113.739 66.6471L143.421 68.8685L113.739 71.1154L84.0057 68.894L113.739 66.6471Z"
      fill="#DCDDDE" />
    <path
      d="M505.252 122.522L527.202 120.871L500.129 118.843L541.601 115.747L504.669 112.991L555.83 109.167L468.708 102.647L492.116 100.936L449.38 97.7304L411.404 100.571L394.334 98.3496L436.232 95.2173L402.651 92.7042L379.255 94.4646L352.085 92.4371L326.686 94.3432L352.485 96.2735L324.064 98.3982L295.63 96.2735L312.105 95.0595L292.425 93.5904L229.488 98.2889L251.79 99.9643L181.07 105.173L222.713 108.293L200.738 109.932L227.836 111.959L186.376 115.055L223.296 117.823L172.135 121.648L242.454 126.905L210.257 129.333L244.251 131.882L253.041 131.215L278.597 133.133L316.573 130.292L333.619 132.501L289.366 135.804L350.069 140.344L363.351 139.349L339.434 137.552L373.586 135.002L397.515 136.787L413.189 135.573L435.491 137.236L498.429 132.538L476.211 130.923L546.931 125.63L505.252 122.522ZM392.537 139.276L415.508 141L438.442 139.288L415.508 137.552L392.537 139.276ZM255.25 132.841L278.196 134.565L255.25 136.277L232.328 134.565L255.25 132.841Z"
      fill="#DCDDDE" />
    <path
      d="M712.234 61.2468L731.269 59.8297L707.766 58.068L743.729 55.3742L711.724 52.9869L756.087 49.6676L680.535 44.012L700.834 42.4928L663.811 39.7225L630.873 42.1864L616.064 40.2587L652.372 37.5394L623.239 35.3691L602.953 36.8883L579.348 35.1265L557.364 36.7734L579.743 38.4458L555.091 40.2842L530.439 38.4458L544.737 37.3734L527.669 36.0968L473.079 40.1821L492.407 41.6247L431.128 46.2079L467.245 48.9144L448.184 50.3315L471.687 52.0932L435.724 54.787L467.755 57.1743L423.379 60.4936L484.365 65.0513L456.444 67.145L485.909 69.3408L493.569 68.7791L515.655 70.477L548.58 67.9237L563.377 69.8515L525 72.7112L577.688 76.656L589.178 75.7879L568.47 74.307L598.076 72.0856L618.834 73.6431L632.418 72.6218L651.772 74.0772L706.349 69.9919L687.02 68.5493L748.3 63.9661L712.234 61.2468ZM614.481 75.7751L634.358 77.2688L654.249 75.7751L634.358 74.307L614.481 75.7751ZM495.42 70.2089L515.311 71.7537L495.42 73.2474L475.53 71.7537L495.42 70.2089Z"
      fill="#DCDDDE" />
  </g>
  <path
    d="M118.218 13.1431C117.911 16.0667 118.014 19.0188 118.523 21.914C116.611 20.5371 114.63 19.2581 112.588 18.0819C110.74 16.7811 109.239 15.0474 108.216 13.0324C107.552 11.8565 107.165 10.985 107.165 10.985C105.942 12.3214 105.145 13.9913 104.874 15.7822C104.603 17.5731 104.871 19.4042 105.643 21.0425C102.057 20.1019 98.2783 20.193 94.7417 21.3053C107.442 29.6059 100.69 30.2976 93.3583 33.7562C86.0261 37.2147 85.5004 41.5449 85.5004 41.5449C94.2575 38.6673 97.7438 42.3473 97.7438 42.3473C93.0263 46.8572 97.2319 53.8989 97.2319 53.8989C101.811 62.6698 113.155 66.3497 123.31 67.9407C129.582 68.8685 135.93 69.1789 142.262 68.8676L119.132 76.0337L98.3801 81.2769C98.3801 81.2769 77.7256 79.0634 70.1444 61.5631C62.5632 44.0627 75.8026 30.3391 74.4745 29.4399C73.1464 28.5407 71.6108 30.4913 71.4448 30.6988C77.1999 14.2222 94.5342 14.402 95.2259 12.7142C95.9177 11.0265 91.8089 10.8466 91.8089 10.8466C109.337 5.0639 118.218 13.1431 118.218 13.1431Z"
    fill="#DF0000" />
  <path
    d="M792.211 60.1796V112.971C812.354 112.847 814.982 112.971 818.413 108.503V56.6242C811.966 60.0551 805.312 60.1796 792.211 60.1796Z"
    fill="white" />
  <path
    d="M792.211 60.1796V112.971C812.354 112.847 814.982 112.971 818.413 108.503V56.6242C811.966 60.0551 805.312 60.1796 792.211 60.1796Z"
    stroke="black" stroke-width="1.90913" stroke-miterlimit="10" />
  <path
    d="M792.211 108.669C819.326 111.754 817.016 103.716 818.22 103.467M791.367 64.1224C813.834 64.0532 815.84 62.5038 817.874 60.9405"
    stroke="black" stroke-width="1.03757" stroke-miterlimit="10" />
  <path d="M39.8477 69.4901V121.369L88.9593 114.95V63.071L39.8477 69.4901Z" fill="white" />
  <path d="M39.8477 69.4901V121.369L88.9593 114.95V63.071L39.8477 69.4901Z" stroke="black"
    stroke-width="1.90913" stroke-miterlimit="10" />
  <path d="M40.9131 72.9625L88.9595 66.8478M40.9131 117.523L88.9595 110.702" stroke="black"
    stroke-width="1.03757" stroke-miterlimit="10" />
  <path d="M88.9597 63.071L55.4531 58.1183V109.997L88.9597 114.949V63.071Z" fill="#DCDDDE" />
  <path d="M88.9597 63.071L55.4531 58.1183V109.997L88.9597 114.949V63.071Z" stroke="black"
    stroke-width="1.90913" stroke-miterlimit="10" />
  <path
    d="M358.466 109.983C273.039 125.56 140.88 94.4333 55.4951 109.983V58.1183C140.922 42.5548 273.081 73.6819 358.466 58.1183V109.983Z"
    fill="white" />
  <path
    d="M358.466 109.983C273.039 125.56 140.88 94.4333 55.4951 109.983V58.1183C140.922 42.5548 273.081 73.6819 358.466 58.1183V109.983Z"
    stroke="black" stroke-width="1.90913" stroke-miterlimit="10" />
  <path
    d="M358.465 62.1579C358.465 62.1579 330.977 73.2253 200.755 61.7567C108.743 53.6083 62.7993 60.7468 55.6885 61.9919M359.697 104.989C359.697 104.989 331.336 116.969 201.059 105.445C109.047 97.297 63.1036 104.449 55.9928 105.681"
    stroke="black" stroke-width="1.03757" stroke-miterlimit="10" />
  <path d="M792.585 42.1536H358.341V126.045H792.585V42.1536Z" fill="white" />
  <path d="M792.585 42.1536H358.341V126.045H792.585V42.1536Z" stroke="black" stroke-width="1.72928"
    stroke-miterlimit="10" />
  <path
    d="M355.449 33.438V134.774C356.12 132.974 357.104 131.307 358.354 129.849V38.363C357.106 36.906 356.127 35.2383 355.463 33.438"
    fill="white" />
  <path
    d="M355.449 33.438V134.774C356.12 132.974 357.104 131.307 358.354 129.849V38.363C357.101 36.9071 356.117 35.2393 355.449 33.438V33.438Z"
    stroke="black" stroke-width="1.72928" stroke-miterlimit="10" />
  <path
    d="M358.341 115.143C358.341 115.143 359.821 129.434 369.962 129.434H400.397C400.397 129.434 410.316 126.058 428.757 126.058M358.341 53.0688C358.341 53.0688 359.821 38.778 369.962 38.778H400.397C400.397 38.778 410.316 42.1951 428.757 42.1951"
    stroke="black" stroke-width="1.72928" stroke-miterlimit="10" />
  <path
    d="M795.503 33.438V134.774C794.832 132.974 793.849 131.307 792.598 129.849V38.363C793.849 36.9052 794.832 35.2379 795.503 33.438Z"
    fill="white" />
  <path
    d="M795.503 33.438V134.774C794.832 132.974 793.849 131.307 792.598 129.849V38.363C793.849 36.9052 794.832 35.2379 795.503 33.438V33.438Z"
    stroke="black" stroke-width="1.72928" stroke-miterlimit="10" />
  <path
    d="M792.598 115.143C792.598 115.143 791.118 129.434 780.977 129.434H750.542C750.542 129.434 740.623 126.058 722.182 126.058M792.598 53.0688C792.598 53.0688 791.118 38.778 780.977 38.778H750.542C750.542 38.778 740.623 42.1951 722.182 42.1951"
    stroke="black" stroke-width="1.72928" stroke-miterlimit="10" />
  <path
    d="M388.638 126.058C396.477 124.508 404.431 123.615 412.419 123.388H738.493C746.489 123.614 754.453 124.507 762.301 126.058M762.301 42.1674C754.452 43.7076 746.489 44.5961 738.493 44.8236H412.419C404.433 44.6037 396.479 43.7245 388.638 42.1951"
    stroke="black" stroke-width="1.03757" stroke-miterlimit="10" />
  <path
    d="M135.733 35.0289C137.127 35.6158 138.378 36.4951 139.401 37.6074C140.425 38.7196 141.198 40.0388 141.668 41.4757C137.726 41.365 136.563 38.3215 135.733 35.0289Z"
    fill="white" />
  <path
    d="M351.976 116.9C351.09 112.1 347.701 104.283 341.144 100.147C335.721 96.7437 330.989 97.4907 330.962 95.7891C330.962 93.6448 337.007 94.3088 337.007 94.3088C330.45 90.5597 321.056 95.1527 319.714 93.0084C318.912 91.708 324.086 89.9095 324.086 89.9095C316.09 89.619 306.669 93.7278 302.878 97.463C312.41 94.2673 325.843 96.0796 331.999 101.378C329.409 99.9387 326.607 98.9162 323.699 98.3484C312.88 96.1764 300.844 99.3998 293.595 102.416C288.538 104.164 283.697 106.485 279.166 109.333C273.771 112.473 263.796 115.392 257.031 112.529C257.031 112.529 267.614 130.167 280.633 124.039C281.587 123.499 282.5 122.96 283.399 122.42C288.456 119.472 293.21 116.034 297.593 112.155C303.541 108.038 310.069 104.831 316.961 102.637C318.948 102.049 321.038 101.893 323.09 102.181C328.222 102.886 332.774 106.179 334.157 110.121C338.128 109.43 348.185 112.75 351.976 116.956"
    fill="#DF0000" />
  <path
    d="M126.561 53.6499C125.468 47.7565 117.333 46.7327 113.142 49.4996C114.817 45.5926 117.963 42.5017 121.899 40.8947C119.88 40.1465 117.808 39.5499 115.701 39.1101C118.385 37.0626 124.984 35.5131 128.332 35.8037C127.679 35.6146 127.013 35.4759 126.34 35.3886L126.976 31.5565C126.602 28.347 123.697 24.6394 120.239 22.4536C118.523 17.5424 120.239 8.61931 122.563 6.22598C121.373 19.078 139.524 26.9774 143.051 36.4954C140.99 28.3608 132.593 23.0623 128.664 18.1373C128.185 16.3915 128.074 14.5651 128.338 12.7742C128.602 10.9833 129.236 9.26685 130.199 7.73392C129.438 16.3527 138.5 23.3805 143.369 28.3608C149.069 34.2127 150.577 39.2899 149.65 43.371C150.485 43.5627 151.22 44.0551 151.715 44.7543C152.21 45.4534 152.431 46.3104 152.334 47.1616C153.283 46.8698 154.161 46.3832 154.911 45.7328C155.662 45.0825 156.268 44.2828 156.692 43.3848C157.425 49.8316 153.441 56.4859 149.166 58.3812C149.506 57.4932 149.626 56.5359 149.516 55.5913C149.405 54.6468 149.066 53.7432 148.53 52.9582C146.662 50.5925 141.267 50.3988 139.454 50.4957C139.454 50.4957 141.792 47.2584 140.948 45.5568C139.925 43.4402 129.355 44.0351 124.583 45.5568C126.86 45.5159 129.128 45.8572 131.292 46.5667C130.517 47.6458 128.442 52.2249 129.798 53.6637C131.154 55.1025 132.565 53.0688 132.772 52.8336C132.62 53.2763 131.029 57.897 132.122 59.0591C133.215 60.2212 135.816 59.5156 135.816 59.5156C134.114 63.4445 127.903 66.0039 123.614 65.8655C125.679 64.9268 127.318 63.2487 128.207 61.1619C126.532 61.7128 124.756 61.8876 123.005 61.6738C124.389 61.1481 127.294 57.6756 126.561 53.636M141.668 41.4619C141.196 40.0275 140.422 38.711 139.399 37.6013C138.375 36.4915 137.125 35.6143 135.733 35.0289C136.563 38.3215 137.725 41.365 141.668 41.4757"
    fill="#DF0000" />
  <path
    d="M103.913 29.4952C104.619 27.005 99.7627 22.5781 97.9504 21.7065C101.405 21.5465 104.859 22.0152 108.146 23.0899C107.271 21.6029 106.726 19.9446 106.55 18.2281C106.373 16.5117 106.569 14.7773 107.123 13.1431C110.567 22.1769 123.834 24.0307 126.906 31.5427L126.269 35.3748C121.026 34.6969 113.293 36.2602 109.391 40.5903C111.5 40.8057 113.582 41.2369 115.603 41.8769C109.696 42.7623 101.561 47.964 99.1264 50.468C99.8457 47.0924 100.883 44.2564 100.15 42.1674C99.1125 39.3037 95.6124 38.0448 88.6953 39.2069C93.5235 34.6554 103.221 32.0407 103.913 29.5229"
    fill="#DF0000" />
  <path
    d="M65.1778 52.3495L66.5612 55.4207C64.6659 55.7389 62.5354 63.2232 62.5354 63.2232C57.7073 60.4564 61.7745 51.4918 61.7745 51.4918L65.1778 52.3495Z"
    fill="#DF0000" />
  <path
    d="M54.6098 51.0767C55.7951 50.2008 57.0876 49.4802 58.4558 48.9323L60.6554 50.883L59.521 51.2288C59.521 51.2288 57.4043 58.146 58.2621 61.0097L59.6455 65.0216C59.6455 65.0216 55.1355 64.1224 54.4438 62.3931C54.4438 62.3931 52.9912 54.6044 54.6098 51.0767Z"
    fill="#DF0000" />
  <path
    d="M52.0641 54.0096C52.0641 54.0096 52.3546 62.8912 53.2676 63.6935L56.6155 65.077L56.7124 68.1067C56.7124 68.1067 50.736 66.2114 50.2379 63.9564C49.7399 61.7014 49.3525 56.0294 49.3525 56.0294C50.0422 55.0907 51.0104 54.3935 52.1194 54.0372"
    fill="#DF0000" />
  <defs>
    <clipPath id="clip0_208_84">
      <rect width="749.957" height="125.099" fill="white" transform="translate(6.13086 14.3044)" />
    </clipPath>
  </defs>
</svg>
  