<svg width="116" height="133" viewBox="0 0 116 133" fill="none" xmlns="http://www.w3.org/2000/svg">
  <path
    d="M59.8956 121.478C59.6518 121.168 59.3417 120.916 58.9881 120.741C58.6345 120.567 58.2463 120.473 57.852 120.468C57.461 120.473 57.0764 120.567 56.7267 120.742C56.377 120.917 56.0713 121.168 55.8324 121.478C23.8561 110.13 11.3301 70.508 9.76732 65.2667V45.4799C10.2754 45.2765 10.7103 44.9244 11.0149 44.4696C11.3195 44.0149 11.4796 43.4787 11.4743 42.9314C11.4879 42.8036 11.4879 42.6746 11.4743 42.5467C20.3459 36.7045 23.6638 25.7171 24.7938 20.4518L55.7843 10.9792C56.027 11.2999 56.339 11.5616 56.697 11.7448C57.0551 11.928 57.4499 12.0279 57.852 12.037C58.2551 12.0333 58.6518 11.9358 59.0107 11.7522C59.3695 11.5686 59.6807 11.3039 59.9196 10.9792L90.9582 20.4518C92.0882 25.7171 95.4061 36.7045 104.278 42.5467C104.278 42.5467 104.278 42.7872 104.278 42.9314C104.272 43.4725 104.426 44.0033 104.721 44.4568C105.017 44.9103 105.439 45.2663 105.937 45.4799V65.2667C104.422 70.508 91.8718 110.13 59.9196 121.478M92.7374 19.4902V18.9131L60.4726 9.07983C60.4726 8.3848 60.1965 7.71823 59.705 7.22677C59.2136 6.73531 58.547 6.45921 57.852 6.45921C57.1569 6.45921 56.4904 6.73531 55.9989 7.22677C55.5075 7.71823 55.2313 8.3848 55.2313 9.07983L23.0868 18.9131V19.4902C22.1491 24.2986 19.1198 35.1417 10.5607 40.8157C10.1025 40.4278 9.52595 40.2074 8.92584 40.1906C8.56301 40.1842 8.20256 40.2505 7.86578 40.3856C7.529 40.5208 7.22271 40.722 6.96499 40.9775C6.70728 41.233 6.50335 41.5375 6.36526 41.8731C6.22717 42.2087 6.1577 42.5685 6.16097 42.9314C6.16216 43.4773 6.32489 44.0106 6.62866 44.4641C6.93244 44.9176 7.36365 45.2711 7.86798 45.4799L7.86798 65.411V65.6755C9.23839 70.4839 21.9808 111.572 55.1592 123.377C55.1959 124.068 55.4951 124.719 55.9955 125.197C56.4959 125.675 57.1599 125.944 57.852 125.95C58.5556 125.943 59.2282 125.659 59.7235 125.159C60.2188 124.66 60.4967 123.985 60.4966 123.281C74.0805 118.472 85.7891 108.447 95.3099 93.3001C100.678 84.6956 104.874 75.4135 107.788 65.6995V45.4799C108.294 45.2737 108.727 44.9209 109.031 44.4668C109.335 44.0127 109.497 43.478 109.495 42.9314C109.501 42.5758 109.437 42.2224 109.306 41.8917C109.175 41.561 108.98 41.2596 108.732 41.0047C108.484 40.7499 108.188 40.5467 107.86 40.407C107.533 40.2673 107.182 40.1937 106.826 40.1906C106.226 40.2074 105.65 40.4278 105.191 40.8157C96.6563 35.1417 93.6029 24.1784 92.6893 19.4902M111.923 66.1563C111.058 69.7386 97.3054 117.823 57.852 128.69C18.3985 117.823 4.64631 69.7386 3.68461 66.1563L3.68461 39.3251C15.85 35.7668 18.7591 20.0912 19.3362 15.5713L57.8039 3.79051L96.2716 15.5713C96.8486 20.1633 99.7577 35.7668 111.947 39.3251L111.923 66.1563ZM114.135 36.0794C101.441 33.5068 99.7096 14.1768 99.7096 13.9845V12.7583L57.852 0.0158691L16.0664 12.8064V14.0325C16.0664 14.2249 14.3594 33.5549 1.64101 36.1274L0.150391 36.416L0.150391 66.3967V66.8295C0.342729 67.3344 14.2392 120.805 57.4192 132.249H57.852H58.2847C101.561 120.732 115.361 67.3344 115.505 66.7574V36.3438L114.135 36.0794Z"
    fill="#231F20" />
</svg>
  