<svg width="135" height="127" viewBox="0 0 135 127" fill="none" xmlns="http://www.w3.org/2000/svg">
  <path
    d="M132.053 12.8535V112.925L121.296 123.682H13.0029L2.21973 112.925L2.21973 12.8535L13.0029 2.07027L121.296 2.07027L132.053 12.8535Z"
  />
  <path
    d="M119.912 122.709H113.099C118.344 120.416 122.798 116.63 125.905 111.823V111.644C127.851 108.649 129.392 105.411 130.49 102.013V111.951L119.912 122.709ZM3.93502 111.951L3.93502 102.013C5.03308 105.411 6.57464 108.649 8.5198 111.644V111.823H8.64787C11.803 116.658 16.3227 120.446 21.6338 122.709H14.6926L3.93502 111.951ZM14.6926 3.55578H21.6338C16.3169 5.80893 11.7948 9.59968 8.64787 14.4414H8.5198V14.6207C6.57464 17.6153 5.03308 20.8534 3.93502 24.2513V14.3134L14.6926 3.55578ZM126.085 17.5406C126.495 18.309 126.956 19.0262 127.34 19.8458C128.848 23.0648 129.966 26.4528 130.67 29.9375V96.199C129.774 100.563 128.229 104.768 126.085 108.673V17.5406ZM3.93502 30.0655C4.83016 25.7015 6.37566 21.4968 8.5198 17.5919L8.5198 108.724C8.10999 107.955 7.64895 107.238 7.26475 106.419C5.75972 103.198 4.64201 99.8108 3.93502 96.3271L3.93502 30.0655ZM107.976 122.709H26.5259C19.9865 121.184 14.2509 117.275 10.4408 111.746L10.4408 14.5695C14.2868 9.03201 20.0423 5.10989 26.6028 3.55578L107.976 3.55578C114.506 5.08746 120.236 8.98382 124.061 14.4926V111.823C120.212 117.297 114.489 121.17 107.976 122.709ZM130.67 14.3134V24.2513C129.571 20.8534 128.03 17.6153 126.085 14.6207V14.4414C122.938 9.59968 118.416 5.80893 113.099 3.55578H120.04L130.67 14.3134ZM121.372 0.0211487L13.207 0.0211487L0.400391 12.8278L0.400391 113.411L13.207 126.218H121.372L134.179 113.411V12.8278L121.372 0.0211487Z"
    fill="#231F20" />
</svg>
  